<?xml version="1.0" encoding="UTF-8" standalone="no"?>
<!DOCTYPE svg PUBLIC "-//W3C//DTD SVG 1.1//EN"
 "http://www.w3.org/Graphics/SVG/1.1/DTD/svg11.dtd">
<!-- Generated by graphviz version 2.40.1 (20161225.0304)
 -->
<!-- Title: dependencies Pages: 1 -->
<svg width="504pt" height="284pt"
 viewBox="0.00 0.00 504.00 284.00" xmlns="http://www.w3.org/2000/svg" xmlns:xlink="http://www.w3.org/1999/xlink">
<g id="graph0" class="graph" transform="scale(1 1) rotate(0) translate(4 280)">
<title>dependencies</title>
<polygon fill="#ffffff" stroke="transparent" points="-4,4 -4,-280 500,-280 500,4 -4,4"/>
<text text-anchor="start" x="227.0091" y="-42.4" font-family="sans-serif" font-weight="bold" font-size="14.00" fill="#000000">Legend</text>
<polygon fill="#ffffb3" stroke="transparent" points="14,-10 14,-30 34,-30 34,-10 14,-10"/>
<text text-anchor="start" x="37.629" y="-15.4" font-family="sans-serif" font-size="14.00" fill="#000000"> &#160;Declarations</text>
<polygon fill="#8dd3c7" stroke="transparent" points="127,-10 127,-30 147,-30 147,-10 127,-10"/>
<text text-anchor="start" x="150.7251" y="-15.4" font-family="sans-serif" font-size="14.00" fill="#000000"> &#160;Module</text>
<polygon fill="#80b1d3" stroke="transparent" points="213,-10 213,-30 233,-30 233,-10 213,-10"/>
<text text-anchor="start" x="236.7812" y="-15.4" font-family="sans-serif" font-size="14.00" fill="#000000"> &#160;Bootstrap</text>
<polygon fill="#fdb462" stroke="transparent" points="310,-10 310,-30 330,-30 330,-10 310,-10"/>
<text text-anchor="start" x="333.6732" y="-15.4" font-family="sans-serif" font-size="14.00" fill="#000000"> &#160;Providers</text>
<polygon fill="#fb8072" stroke="transparent" points="406,-10 406,-30 426,-30 426,-10 406,-10"/>
<text text-anchor="start" x="429.7258" y="-15.4" font-family="sans-serif" font-size="14.00" fill="#000000"> &#160;Exports</text>
<g id="clust1" class="cluster">
<title>cluster_UATSlideoutMenuModule</title>
<polygon fill="none" stroke="#000000" stroke-dasharray="1,5" points="78,-70 78,-268 418,-268 418,-70 78,-70"/>
</g>
<g id="clust2" class="cluster">
<title>cluster_UATSlideoutMenuModule_declarations</title>
<polygon fill="none" stroke="#000000" points="270,-78 270,-130 410,-130 410,-78 270,-78"/>
</g>
<g id="clust4" class="cluster">
<title>cluster_UATSlideoutMenuModule_imports</title>
<polygon fill="none" stroke="#000000" points="86,-78 86,-130 262,-130 262,-78 86,-78"/>
</g>
<g id="clust5" class="cluster">
<title>cluster_UATSlideoutMenuModule_exports</title>
<polygon fill="none" stroke="#000000" points="178,-208 178,-260 322,-260 322,-208 178,-208"/>
</g>
<!-- UATSlideoutMenu -->
<g id="node1" class="node">
<title>UATSlideoutMenu</title>
<polygon fill="#ffffb3" stroke="#000000" points="402.094,-122 277.906,-122 277.906,-86 402.094,-86 402.094,-122"/>
<text text-anchor="middle" x="340" y="-99.8" font-family="Times,serif" font-size="14.00" fill="#000000">UATSlideoutMenu</text>
</g>
<!-- UATSlideoutMenuModule -->
<g id="node2" class="node">
<title>UATSlideoutMenuModule</title>
<polygon fill="#8dd3c7" stroke="#000000" points="333.6442,-187 330.6442,-191 309.6442,-191 306.6442,-187 166.3558,-187 166.3558,-151 333.6442,-151 333.6442,-187"/>
<text text-anchor="middle" x="250" y="-164.8" font-family="Times,serif" font-size="14.00" fill="#000000">UATSlideoutMenuModule</text>
</g>
<!-- UATSlideoutMenu&#45;&gt;UATSlideoutMenuModule -->
<g id="edge1" class="edge">
<title>UATSlideoutMenu&#45;&gt;UATSlideoutMenuModule</title>
<path fill="none" stroke="#000000" d="M305.8875,-122.1061C305.8875,-122.1061 305.8875,-140.991 305.8875,-140.991"/>
<polygon fill="#000000" stroke="#000000" points="302.3875,-140.9909 305.8875,-150.991 309.3875,-140.991 302.3875,-140.9909"/>
</g>
<!-- UATSlideoutMenu  -->
<g id="node4" class="node">
<title>UATSlideoutMenu </title>
<polygon fill="#fb8072" stroke="#000000" points="313.5946,-252 186.4054,-252 186.4054,-216 313.5946,-216 313.5946,-252"/>
<text text-anchor="middle" x="250" y="-229.8" font-family="Times,serif" font-size="14.00" fill="#000000">UATSlideoutMenu </text>
</g>
<!-- UATSlideoutMenuModule&#45;&gt;UATSlideoutMenu  -->
<g id="edge3" class="edge">
<title>UATSlideoutMenuModule&#45;&gt;UATSlideoutMenu </title>
<path fill="none" stroke="#000000" stroke-dasharray="5,2" d="M250,-187.1061C250,-187.1061 250,-205.991 250,-205.991"/>
<polygon fill="#000000" stroke="#000000" points="246.5001,-205.9909 250,-215.991 253.5001,-205.991 246.5001,-205.9909"/>
</g>
<!-- UATSlidingPanelModule -->
<g id="node3" class="node">
<title>UATSlidingPanelModule</title>
<polygon fill="#8dd3c7" stroke="#000000" points="253.8725,-122 250.8725,-126 229.8725,-126 226.8725,-122 94.1275,-122 94.1275,-86 253.8725,-86 253.8725,-122"/>
<text text-anchor="middle" x="174" y="-99.8" font-family="Times,serif" font-size="14.00" fill="#000000">UATSlidingPanelModule</text>
</g>
<!-- UATSlidingPanelModule&#45;&gt;UATSlideoutMenuModule -->
<g id="edge2" class="edge">
<title>UATSlidingPanelModule&#45;&gt;UATSlideoutMenuModule</title>
<path fill="none" stroke="#000000" d="M210.0572,-122.1061C210.0572,-122.1061 210.0572,-140.991 210.0572,-140.991"/>
<polygon fill="#000000" stroke="#000000" points="206.5572,-140.9909 210.0572,-150.991 213.5572,-140.991 206.5572,-140.9909"/>
</g>
</g>
</svg>
