<?xml version="1.0" encoding="UTF-8" standalone="no"?>
<!DOCTYPE svg PUBLIC "-//W3C//DTD SVG 1.1//EN"
 "http://www.w3.org/Graphics/SVG/1.1/DTD/svg11.dtd">
<!-- Generated by graphviz version 2.40.1 (20161225.0304)
 -->
<!-- Title: dependencies Pages: 1 -->
<svg width="536pt" height="284pt"
 viewBox="0.00 0.00 536.00 284.00" xmlns="http://www.w3.org/2000/svg" xmlns:xlink="http://www.w3.org/1999/xlink">
<g id="graph0" class="graph" transform="scale(1 1) rotate(0) translate(4 280)">
<title>dependencies</title>
<polygon fill="#ffffff" stroke="transparent" points="-4,4 -4,-280 532,-280 532,4 -4,4"/>
<text text-anchor="start" x="243.0091" y="-42.4" font-family="sans-serif" font-weight="bold" font-size="14.00" fill="#000000">Legend</text>
<polygon fill="#ffffb3" stroke="transparent" points="30,-10 30,-30 50,-30 50,-10 30,-10"/>
<text text-anchor="start" x="53.629" y="-15.4" font-family="sans-serif" font-size="14.00" fill="#000000"> &#160;Declarations</text>
<polygon fill="#8dd3c7" stroke="transparent" points="143,-10 143,-30 163,-30 163,-10 143,-10"/>
<text text-anchor="start" x="166.7251" y="-15.4" font-family="sans-serif" font-size="14.00" fill="#000000"> &#160;Module</text>
<polygon fill="#80b1d3" stroke="transparent" points="229,-10 229,-30 249,-30 249,-10 229,-10"/>
<text text-anchor="start" x="252.7812" y="-15.4" font-family="sans-serif" font-size="14.00" fill="#000000"> &#160;Bootstrap</text>
<polygon fill="#fdb462" stroke="transparent" points="326,-10 326,-30 346,-30 346,-10 326,-10"/>
<text text-anchor="start" x="349.6732" y="-15.4" font-family="sans-serif" font-size="14.00" fill="#000000"> &#160;Providers</text>
<polygon fill="#fb8072" stroke="transparent" points="422,-10 422,-30 442,-30 442,-10 422,-10"/>
<text text-anchor="start" x="445.7258" y="-15.4" font-family="sans-serif" font-size="14.00" fill="#000000"> &#160;Exports</text>
<g id="clust1" class="cluster">
<title>cluster_UATCollapsingMenuModule</title>
<polygon fill="none" stroke="#000000" stroke-dasharray="1,5" points="8,-70 8,-268 520,-268 520,-70 8,-70"/>
</g>
<g id="clust2" class="cluster">
<title>cluster_UATCollapsingMenuModule_declarations</title>
<polygon fill="none" stroke="#000000" points="358,-78 358,-130 512,-130 512,-78 358,-78"/>
</g>
<g id="clust4" class="cluster">
<title>cluster_UATCollapsingMenuModule_imports</title>
<polygon fill="none" stroke="#000000" points="16,-78 16,-130 350,-130 350,-78 16,-78"/>
</g>
<g id="clust5" class="cluster">
<title>cluster_UATCollapsingMenuModule_exports</title>
<polygon fill="none" stroke="#000000" points="193,-208 193,-260 351,-260 351,-208 193,-208"/>
</g>
<!-- UATCollapsingMenu -->
<g id="node1" class="node">
<title>UATCollapsingMenu</title>
<polygon fill="#ffffb3" stroke="#000000" points="504.0926,-122 365.9074,-122 365.9074,-86 504.0926,-86 504.0926,-122"/>
<text text-anchor="middle" x="435" y="-99.8" font-family="Times,serif" font-size="14.00" fill="#000000">UATCollapsingMenu</text>
</g>
<!-- UATCollapsingMenuModule -->
<g id="node2" class="node">
<title>UATCollapsingMenuModule</title>
<polygon fill="#8dd3c7" stroke="#000000" points="362.6428,-187 359.6428,-191 338.6428,-191 335.6428,-187 181.3572,-187 181.3572,-151 362.6428,-151 362.6428,-187"/>
<text text-anchor="middle" x="272" y="-164.8" font-family="Times,serif" font-size="14.00" fill="#000000">UATCollapsingMenuModule</text>
</g>
<!-- UATCollapsingMenu&#45;&gt;UATCollapsingMenuModule -->
<g id="edge1" class="edge">
<title>UATCollapsingMenu&#45;&gt;UATCollapsingMenuModule</title>
<path fill="none" stroke="#000000" d="M365.771,-104C357.8364,-104 352.519,-104 352.519,-104 352.519,-104 352.519,-140.8939 352.519,-140.8939"/>
<polygon fill="#000000" stroke="#000000" points="349.019,-140.8938 352.519,-150.8939 356.019,-140.8939 349.019,-140.8938"/>
</g>
<!-- UATCollapsingMenu  -->
<g id="node5" class="node">
<title>UATCollapsingMenu </title>
<polygon fill="#fb8072" stroke="#000000" points="342.5932,-252 201.4068,-252 201.4068,-216 342.5932,-216 342.5932,-252"/>
<text text-anchor="middle" x="272" y="-229.8" font-family="Times,serif" font-size="14.00" fill="#000000">UATCollapsingMenu </text>
</g>
<!-- UATCollapsingMenuModule&#45;&gt;UATCollapsingMenu  -->
<g id="edge4" class="edge">
<title>UATCollapsingMenuModule&#45;&gt;UATCollapsingMenu </title>
<path fill="none" stroke="#000000" stroke-dasharray="5,2" d="M272,-187.1061C272,-187.1061 272,-205.991 272,-205.991"/>
<polygon fill="#000000" stroke="#000000" points="268.5001,-205.9909 272,-215.991 275.5001,-205.991 268.5001,-205.9909"/>
</g>
<!-- UATCommonModule -->
<g id="node3" class="node">
<title>UATCommonModule</title>
<polygon fill="#8dd3c7" stroke="#000000" points="342.4341,-122 339.4341,-126 318.4341,-126 315.4341,-122 201.5659,-122 201.5659,-86 342.4341,-86 342.4341,-122"/>
<text text-anchor="middle" x="272" y="-99.8" font-family="Times,serif" font-size="14.00" fill="#000000">UATCommonModule</text>
</g>
<!-- UATCommonModule&#45;&gt;UATCollapsingMenuModule -->
<g id="edge2" class="edge">
<title>UATCommonModule&#45;&gt;UATCollapsingMenuModule</title>
<path fill="none" stroke="#000000" d="M272,-122.1061C272,-122.1061 272,-140.991 272,-140.991"/>
<polygon fill="#000000" stroke="#000000" points="268.5001,-140.9909 272,-150.991 275.5001,-140.991 268.5001,-140.9909"/>
</g>
<!-- UATSlidingPanelModule -->
<g id="node4" class="node">
<title>UATSlidingPanelModule</title>
<polygon fill="#8dd3c7" stroke="#000000" points="183.8725,-122 180.8725,-126 159.8725,-126 156.8725,-122 24.1275,-122 24.1275,-86 183.8725,-86 183.8725,-122"/>
<text text-anchor="middle" x="104" y="-99.8" font-family="Times,serif" font-size="14.00" fill="#000000">UATSlidingPanelModule</text>
</g>
<!-- UATSlidingPanelModule&#45;&gt;UATCollapsingMenuModule -->
<g id="edge3" class="edge">
<title>UATSlidingPanelModule&#45;&gt;UATCollapsingMenuModule</title>
<path fill="none" stroke="#000000" d="M184.0147,-104C189.47,-104 192.8598,-104 192.8598,-104 192.8598,-104 192.8598,-140.8939 192.8598,-140.8939"/>
<polygon fill="#000000" stroke="#000000" points="189.3598,-140.8938 192.8598,-150.8939 196.3598,-140.8939 189.3598,-140.8938"/>
</g>
</g>
</svg>
