<?xml version="1.0" encoding="UTF-8" standalone="no"?>
<!DOCTYPE svg PUBLIC "-//W3C//DTD SVG 1.1//EN"
 "http://www.w3.org/Graphics/SVG/1.1/DTD/svg11.dtd">
<!-- Generated by graphviz version 2.40.1 (20161225.0304)
 -->
<!-- Title: dependencies Pages: 1 -->
<svg width="692pt" height="284pt"
 viewBox="0.00 0.00 692.00 284.00" xmlns="http://www.w3.org/2000/svg" xmlns:xlink="http://www.w3.org/1999/xlink">
<g id="graph0" class="graph" transform="scale(1 1) rotate(0) translate(4 280)">
<title>dependencies</title>
<polygon fill="#ffffff" stroke="transparent" points="-4,4 -4,-280 688,-280 688,4 -4,4"/>
<text text-anchor="start" x="321.0091" y="-42.4" font-family="sans-serif" font-weight="bold" font-size="14.00" fill="#000000">Legend</text>
<polygon fill="#ffffb3" stroke="transparent" points="108,-10 108,-30 128,-30 128,-10 108,-10"/>
<text text-anchor="start" x="131.629" y="-15.4" font-family="sans-serif" font-size="14.00" fill="#000000"> &#160;Declarations</text>
<polygon fill="#8dd3c7" stroke="transparent" points="221,-10 221,-30 241,-30 241,-10 221,-10"/>
<text text-anchor="start" x="244.7251" y="-15.4" font-family="sans-serif" font-size="14.00" fill="#000000"> &#160;Module</text>
<polygon fill="#80b1d3" stroke="transparent" points="307,-10 307,-30 327,-30 327,-10 307,-10"/>
<text text-anchor="start" x="330.7812" y="-15.4" font-family="sans-serif" font-size="14.00" fill="#000000"> &#160;Bootstrap</text>
<polygon fill="#fdb462" stroke="transparent" points="404,-10 404,-30 424,-30 424,-10 404,-10"/>
<text text-anchor="start" x="427.6732" y="-15.4" font-family="sans-serif" font-size="14.00" fill="#000000"> &#160;Providers</text>
<polygon fill="#fb8072" stroke="transparent" points="500,-10 500,-30 520,-30 520,-10 500,-10"/>
<text text-anchor="start" x="523.7258" y="-15.4" font-family="sans-serif" font-size="14.00" fill="#000000"> &#160;Exports</text>
<g id="clust1" class="cluster">
<title>cluster_UATHamburgerMenuModule</title>
<polygon fill="none" stroke="#000000" stroke-dasharray="1,5" points="8,-70 8,-268 676,-268 676,-70 8,-70"/>
</g>
<g id="clust2" class="cluster">
<title>cluster_UATHamburgerMenuModule_declarations</title>
<polygon fill="none" stroke="#000000" points="358,-78 358,-130 668,-130 668,-78 358,-78"/>
</g>
<g id="clust5" class="cluster">
<title>cluster_UATHamburgerMenuModule_imports</title>
<polygon fill="none" stroke="#000000" points="16,-78 16,-130 350,-130 350,-78 16,-78"/>
</g>
<g id="clust6" class="cluster">
<title>cluster_UATHamburgerMenuModule_exports</title>
<polygon fill="none" stroke="#000000" points="190,-208 190,-260 506,-260 506,-208 190,-208"/>
</g>
<!-- UATHamburgerMenu -->
<g id="node1" class="node">
<title>UATHamburgerMenu</title>
<polygon fill="#ffffb3" stroke="#000000" points="659.6727,-122 518.3273,-122 518.3273,-86 659.6727,-86 659.6727,-122"/>
<text text-anchor="middle" x="589" y="-99.8" font-family="Times,serif" font-size="14.00" fill="#000000">UATHamburgerMenu</text>
</g>
<!-- UATHamburgerMenuModule -->
<g id="node3" class="node">
<title>UATHamburgerMenuModule</title>
<polygon fill="#8dd3c7" stroke="#000000" points="439.2226,-187 436.2226,-191 415.2226,-191 412.2226,-187 254.7774,-187 254.7774,-151 439.2226,-151 439.2226,-187"/>
<text text-anchor="middle" x="347" y="-164.8" font-family="Times,serif" font-size="14.00" fill="#000000">UATHamburgerMenuModule</text>
</g>
<!-- UATHamburgerMenu&#45;&gt;UATHamburgerMenuModule -->
<g id="edge1" class="edge">
<title>UATHamburgerMenu&#45;&gt;UATHamburgerMenuModule</title>
<path fill="none" stroke="#000000" d="M589,-122.1061C589,-141.3391 589,-169 589,-169 589,-169 449.5257,-169 449.5257,-169"/>
<polygon fill="#000000" stroke="#000000" points="449.5257,-165.5001 439.5257,-169 449.5257,-172.5001 449.5257,-165.5001"/>
</g>
<!-- UATMenuItemRight -->
<g id="node2" class="node">
<title>UATMenuItemRight</title>
<polygon fill="#ffffb3" stroke="#000000" points="500.1993,-122 365.8007,-122 365.8007,-86 500.1993,-86 500.1993,-122"/>
<text text-anchor="middle" x="433" y="-99.8" font-family="Times,serif" font-size="14.00" fill="#000000">UATMenuItemRight</text>
</g>
<!-- UATMenuItemRight&#45;&gt;UATHamburgerMenuModule -->
<g id="edge2" class="edge">
<title>UATMenuItemRight&#45;&gt;UATHamburgerMenuModule</title>
<path fill="none" stroke="#000000" d="M402.6308,-122.1061C402.6308,-122.1061 402.6308,-140.991 402.6308,-140.991"/>
<polygon fill="#000000" stroke="#000000" points="399.1309,-140.9909 402.6308,-150.991 406.1309,-140.991 399.1309,-140.9909"/>
</g>
<!-- UATHamburgerMenu  -->
<g id="node6" class="node">
<title>UATHamburgerMenu </title>
<polygon fill="#fb8072" stroke="#000000" points="498.173,-252 353.827,-252 353.827,-216 498.173,-216 498.173,-252"/>
<text text-anchor="middle" x="426" y="-229.8" font-family="Times,serif" font-size="14.00" fill="#000000">UATHamburgerMenu </text>
</g>
<!-- UATHamburgerMenuModule&#45;&gt;UATHamburgerMenu  -->
<g id="edge5" class="edge">
<title>UATHamburgerMenuModule&#45;&gt;UATHamburgerMenu </title>
<path fill="none" stroke="#000000" stroke-dasharray="5,2" d="M396.5125,-187.1061C396.5125,-187.1061 396.5125,-205.991 396.5125,-205.991"/>
<polygon fill="#000000" stroke="#000000" points="393.0125,-205.9909 396.5125,-215.991 400.0125,-205.991 393.0125,-205.9909"/>
</g>
<!-- UATMenuItemRight  -->
<g id="node7" class="node">
<title>UATMenuItemRight </title>
<polygon fill="#fb8072" stroke="#000000" points="335.6995,-252 198.3005,-252 198.3005,-216 335.6995,-216 335.6995,-252"/>
<text text-anchor="middle" x="267" y="-229.8" font-family="Times,serif" font-size="14.00" fill="#000000">UATMenuItemRight </text>
</g>
<!-- UATHamburgerMenuModule&#45;&gt;UATMenuItemRight  -->
<g id="edge6" class="edge">
<title>UATHamburgerMenuModule&#45;&gt;UATMenuItemRight </title>
<path fill="none" stroke="#000000" stroke-dasharray="5,2" d="M295.2442,-187.1061C295.2442,-187.1061 295.2442,-205.991 295.2442,-205.991"/>
<polygon fill="#000000" stroke="#000000" points="291.7443,-205.9909 295.2442,-215.991 298.7443,-205.991 291.7443,-205.9909"/>
</g>
<!-- UATSlidingPanelModule -->
<g id="node4" class="node">
<title>UATSlidingPanelModule</title>
<polygon fill="#8dd3c7" stroke="#000000" points="341.8725,-122 338.8725,-126 317.8725,-126 314.8725,-122 182.1275,-122 182.1275,-86 341.8725,-86 341.8725,-122"/>
<text text-anchor="middle" x="262" y="-99.8" font-family="Times,serif" font-size="14.00" fill="#000000">UATSlidingPanelModule</text>
</g>
<!-- UATSlidingPanelModule&#45;&gt;UATHamburgerMenuModule -->
<g id="edge3" class="edge">
<title>UATSlidingPanelModule&#45;&gt;UATHamburgerMenuModule</title>
<path fill="none" stroke="#000000" d="M298.2875,-122.1061C298.2875,-122.1061 298.2875,-140.991 298.2875,-140.991"/>
<polygon fill="#000000" stroke="#000000" points="294.7876,-140.9909 298.2875,-150.991 301.7876,-140.991 294.7876,-140.9909"/>
</g>
<!-- UATCommonModule -->
<g id="node5" class="node">
<title>UATCommonModule</title>
<polygon fill="#8dd3c7" stroke="#000000" points="164.4341,-122 161.4341,-126 140.4341,-126 137.4341,-122 23.5659,-122 23.5659,-86 164.4341,-86 164.4341,-122"/>
<text text-anchor="middle" x="94" y="-99.8" font-family="Times,serif" font-size="14.00" fill="#000000">UATCommonModule</text>
</g>
<!-- UATCommonModule&#45;&gt;UATHamburgerMenuModule -->
<g id="edge4" class="edge">
<title>UATCommonModule&#45;&gt;UATHamburgerMenuModule</title>
<path fill="none" stroke="#000000" d="M94,-122.1061C94,-141.3391 94,-169 94,-169 94,-169 244.5873,-169 244.5873,-169"/>
<polygon fill="#000000" stroke="#000000" points="244.5873,-172.5001 254.5873,-169 244.5872,-165.5001 244.5873,-172.5001"/>
</g>
</g>
</svg>
