<?xml version="1.0" encoding="UTF-8" standalone="no"?>
<!DOCTYPE svg PUBLIC "-//W3C//DTD SVG 1.1//EN"
 "http://www.w3.org/Graphics/SVG/1.1/DTD/svg11.dtd">
<!-- Generated by graphviz version 2.40.1 (20161225.0304)
 -->
<!-- Title: dependencies Pages: 1 -->
<svg width="784pt" height="284pt"
 viewBox="0.00 0.00 784.00 284.00" xmlns="http://www.w3.org/2000/svg" xmlns:xlink="http://www.w3.org/1999/xlink">
<g id="graph0" class="graph" transform="scale(1 1) rotate(0) translate(4 280)">
<title>dependencies</title>
<polygon fill="#ffffff" stroke="transparent" points="-4,4 -4,-280 780,-280 780,4 -4,4"/>
<text text-anchor="start" x="367.0091" y="-42.4" font-family="sans-serif" font-weight="bold" font-size="14.00" fill="#000000">Legend</text>
<polygon fill="#ffffb3" stroke="transparent" points="154,-10 154,-30 174,-30 174,-10 154,-10"/>
<text text-anchor="start" x="177.629" y="-15.4" font-family="sans-serif" font-size="14.00" fill="#000000"> &#160;Declarations</text>
<polygon fill="#8dd3c7" stroke="transparent" points="267,-10 267,-30 287,-30 287,-10 267,-10"/>
<text text-anchor="start" x="290.7251" y="-15.4" font-family="sans-serif" font-size="14.00" fill="#000000"> &#160;Module</text>
<polygon fill="#80b1d3" stroke="transparent" points="353,-10 353,-30 373,-30 373,-10 353,-10"/>
<text text-anchor="start" x="376.7812" y="-15.4" font-family="sans-serif" font-size="14.00" fill="#000000"> &#160;Bootstrap</text>
<polygon fill="#fdb462" stroke="transparent" points="450,-10 450,-30 470,-30 470,-10 450,-10"/>
<text text-anchor="start" x="473.6732" y="-15.4" font-family="sans-serif" font-size="14.00" fill="#000000"> &#160;Providers</text>
<polygon fill="#fb8072" stroke="transparent" points="546,-10 546,-30 566,-30 566,-10 546,-10"/>
<text text-anchor="start" x="569.7258" y="-15.4" font-family="sans-serif" font-size="14.00" fill="#000000"> &#160;Exports</text>
<g id="clust1" class="cluster">
<title>cluster_UATDropdownInputModule</title>
<polygon fill="none" stroke="#000000" stroke-dasharray="1,5" points="8,-70 8,-268 768,-268 768,-70 8,-70"/>
</g>
<g id="clust2" class="cluster">
<title>cluster_UATDropdownInputModule_declarations</title>
<polygon fill="none" stroke="#000000" points="200,-78 200,-130 760,-130 760,-78 200,-78"/>
</g>
<g id="clust6" class="cluster">
<title>cluster_UATDropdownInputModule_imports</title>
<polygon fill="none" stroke="#000000" points="16,-78 16,-130 192,-130 192,-78 16,-78"/>
</g>
<g id="clust7" class="cluster">
<title>cluster_UATDropdownInputModule_exports</title>
<polygon fill="none" stroke="#000000" points="327,-208 327,-260 481,-260 481,-208 327,-208"/>
</g>
<!-- UATDropdownInput -->
<g id="node1" class="node">
<title>UATDropdownInput</title>
<polygon fill="#ffffb3" stroke="#000000" points="752.1909,-122 617.8091,-122 617.8091,-86 752.1909,-86 752.1909,-122"/>
<text text-anchor="middle" x="685" y="-99.8" font-family="Times,serif" font-size="14.00" fill="#000000">UATDropdownInput</text>
</g>
<!-- UATDropdownInputModule -->
<g id="node4" class="node">
<title>UATDropdownInputModule</title>
<polygon fill="#8dd3c7" stroke="#000000" points="492.7408,-187 489.7408,-191 468.7408,-191 465.7408,-187 315.2592,-187 315.2592,-151 492.7408,-151 492.7408,-187"/>
<text text-anchor="middle" x="404" y="-164.8" font-family="Times,serif" font-size="14.00" fill="#000000">UATDropdownInputModule</text>
</g>
<!-- UATDropdownInput&#45;&gt;UATDropdownInputModule -->
<g id="edge1" class="edge">
<title>UATDropdownInput&#45;&gt;UATDropdownInputModule</title>
<path fill="none" stroke="#000000" d="M685,-122.1061C685,-141.3391 685,-169 685,-169 685,-169 502.9102,-169 502.9102,-169"/>
<polygon fill="#000000" stroke="#000000" points="502.9102,-165.5001 492.9102,-169 502.9101,-172.5001 502.9102,-165.5001"/>
</g>
<!-- UATDropdownInputDirective -->
<g id="node2" class="node">
<title>UATDropdownInputDirective</title>
<polygon fill="#ffffb3" stroke="#000000" points="600.2738,-122 413.7262,-122 413.7262,-86 600.2738,-86 600.2738,-122"/>
<text text-anchor="middle" x="507" y="-99.8" font-family="Times,serif" font-size="14.00" fill="#000000">UATDropdownInputDirective</text>
</g>
<!-- UATDropdownInputDirective&#45;&gt;UATDropdownInputModule -->
<g id="edge2" class="edge">
<title>UATDropdownInputDirective&#45;&gt;UATDropdownInputModule</title>
<path fill="none" stroke="#000000" d="M453.3668,-122.1061C453.3668,-122.1061 453.3668,-140.991 453.3668,-140.991"/>
<polygon fill="#000000" stroke="#000000" points="449.8668,-140.9909 453.3668,-150.991 456.8668,-140.991 449.8668,-140.9909"/>
</g>
<!-- UATDropdownInputItemsList -->
<g id="node3" class="node">
<title>UATDropdownInputItemsList</title>
<polygon fill="#ffffb3" stroke="#000000" points="395.5702,-122 208.4298,-122 208.4298,-86 395.5702,-86 395.5702,-122"/>
<text text-anchor="middle" x="302" y="-99.8" font-family="Times,serif" font-size="14.00" fill="#000000">UATDropdownInputItemsList</text>
</g>
<!-- UATDropdownInputItemsList&#45;&gt;UATDropdownInputModule -->
<g id="edge3" class="edge">
<title>UATDropdownInputItemsList&#45;&gt;UATDropdownInputModule</title>
<path fill="none" stroke="#000000" d="M355.3324,-122.1061C355.3324,-122.1061 355.3324,-140.991 355.3324,-140.991"/>
<polygon fill="#000000" stroke="#000000" points="351.8325,-140.9909 355.3324,-150.991 358.8325,-140.991 351.8325,-140.9909"/>
</g>
<!-- UATDropdownInput  -->
<g id="node6" class="node">
<title>UATDropdownInput </title>
<polygon fill="#fb8072" stroke="#000000" points="472.6911,-252 335.3089,-252 335.3089,-216 472.6911,-216 472.6911,-252"/>
<text text-anchor="middle" x="404" y="-229.8" font-family="Times,serif" font-size="14.00" fill="#000000">UATDropdownInput </text>
</g>
<!-- UATDropdownInputModule&#45;&gt;UATDropdownInput  -->
<g id="edge5" class="edge">
<title>UATDropdownInputModule&#45;&gt;UATDropdownInput </title>
<path fill="none" stroke="#000000" stroke-dasharray="5,2" d="M404,-187.1061C404,-187.1061 404,-205.991 404,-205.991"/>
<polygon fill="#000000" stroke="#000000" points="400.5001,-205.9909 404,-215.991 407.5001,-205.991 400.5001,-205.9909"/>
</g>
<!-- UATSlidingPanelModule -->
<g id="node5" class="node">
<title>UATSlidingPanelModule</title>
<polygon fill="#8dd3c7" stroke="#000000" points="183.8725,-122 180.8725,-126 159.8725,-126 156.8725,-122 24.1275,-122 24.1275,-86 183.8725,-86 183.8725,-122"/>
<text text-anchor="middle" x="104" y="-99.8" font-family="Times,serif" font-size="14.00" fill="#000000">UATSlidingPanelModule</text>
</g>
<!-- UATSlidingPanelModule&#45;&gt;UATDropdownInputModule -->
<g id="edge4" class="edge">
<title>UATSlidingPanelModule&#45;&gt;UATDropdownInputModule</title>
<path fill="none" stroke="#000000" d="M104,-122.1061C104,-141.3391 104,-169 104,-169 104,-169 305.2078,-169 305.2078,-169"/>
<polygon fill="#000000" stroke="#000000" points="305.2078,-172.5001 315.2078,-169 305.2077,-165.5001 305.2078,-172.5001"/>
</g>
</g>
</svg>
