<?xml version="1.0" encoding="UTF-8" standalone="no"?>
<!DOCTYPE svg PUBLIC "-//W3C//DTD SVG 1.1//EN"
 "http://www.w3.org/Graphics/SVG/1.1/DTD/svg11.dtd">
<!-- Generated by graphviz version 2.40.1 (20161225.0304)
 -->
<!-- Title: dependencies Pages: 1 -->
<svg width="3406pt" height="290pt"
 viewBox="0.00 0.00 3406.00 290.00" xmlns="http://www.w3.org/2000/svg" xmlns:xlink="http://www.w3.org/1999/xlink">
<g id="graph0" class="graph" transform="scale(1 1) rotate(0) translate(4 286)">
<title>dependencies</title>
<polygon fill="#ffffff" stroke="transparent" points="-4,4 -4,-286 3402,-286 3402,4 -4,4"/>
<text text-anchor="start" x="1678.0091" y="-42.4" font-family="sans-serif" font-weight="bold" font-size="14.00" fill="#000000">Legend</text>
<polygon fill="#ffffb3" stroke="transparent" points="1465,-10 1465,-30 1485,-30 1485,-10 1465,-10"/>
<text text-anchor="start" x="1488.629" y="-15.4" font-family="sans-serif" font-size="14.00" fill="#000000"> &#160;Declarations</text>
<polygon fill="#8dd3c7" stroke="transparent" points="1578,-10 1578,-30 1598,-30 1598,-10 1578,-10"/>
<text text-anchor="start" x="1601.7251" y="-15.4" font-family="sans-serif" font-size="14.00" fill="#000000"> &#160;Module</text>
<polygon fill="#80b1d3" stroke="transparent" points="1664,-10 1664,-30 1684,-30 1684,-10 1664,-10"/>
<text text-anchor="start" x="1687.7812" y="-15.4" font-family="sans-serif" font-size="14.00" fill="#000000"> &#160;Bootstrap</text>
<polygon fill="#fdb462" stroke="transparent" points="1761,-10 1761,-30 1781,-30 1781,-10 1761,-10"/>
<text text-anchor="start" x="1784.6732" y="-15.4" font-family="sans-serif" font-size="14.00" fill="#000000"> &#160;Providers</text>
<polygon fill="#fb8072" stroke="transparent" points="1857,-10 1857,-30 1877,-30 1877,-10 1857,-10"/>
<text text-anchor="start" x="1880.7258" y="-15.4" font-family="sans-serif" font-size="14.00" fill="#000000"> &#160;Exports</text>
<g id="clust1" class="cluster">
<title>cluster_UATCollapsingMenuModule</title>
<polygon fill="none" stroke="#000000" stroke-dasharray="1,5" points="8,-70 8,-274 520,-274 520,-70 8,-70"/>
</g>
<g id="clust2" class="cluster">
<title>cluster_UATCollapsingMenuModule_declarations</title>
<polygon fill="none" stroke="#000000" points="16,-78 16,-130 170,-130 170,-78 16,-78"/>
</g>
<g id="clust4" class="cluster">
<title>cluster_UATCollapsingMenuModule_imports</title>
<polygon fill="none" stroke="#000000" points="178,-78 178,-130 512,-130 512,-78 178,-78"/>
</g>
<g id="clust5" class="cluster">
<title>cluster_UATCollapsingMenuModule_exports</title>
<polygon fill="none" stroke="#000000" points="177,-214 177,-266 335,-266 335,-214 177,-214"/>
</g>
<g id="clust8" class="cluster">
<title>cluster_UATCommonModule</title>
<polygon fill="none" stroke="#000000" stroke-dasharray="1,5" points="528,-138 528,-206 794,-206 794,-138 528,-138"/>
</g>
<g id="clust9" class="cluster">
<title>cluster_UATCommonModule_declarations</title>
<polygon fill="none" stroke="#000000" points="666,-146 666,-198 786,-198 786,-146 666,-146"/>
</g>
<g id="clust12" class="cluster">
<title>cluster_UATCommonModule_exports</title>
<polygon fill="none" stroke="#000000" points="536,-146 536,-198 658,-198 658,-146 536,-146"/>
</g>
<g id="clust15" class="cluster">
<title>cluster_UATDropdownInputModule</title>
<polygon fill="none" stroke="#000000" stroke-dasharray="1,5" points="1794,-70 1794,-274 2370,-274 2370,-70 1794,-70"/>
</g>
<g id="clust16" class="cluster">
<title>cluster_UATDropdownInputModule_declarations</title>
<polygon fill="none" stroke="#000000" points="1802,-78 1802,-130 2362,-130 2362,-78 1802,-78"/>
</g>
<g id="clust21" class="cluster">
<title>cluster_UATDropdownInputModule_exports</title>
<polygon fill="none" stroke="#000000" points="1896,-214 1896,-266 2050,-266 2050,-214 1896,-214"/>
</g>
<g id="clust24" class="cluster">
<title>cluster_UATDropdownMenuModule</title>
<polygon fill="none" stroke="#000000" stroke-dasharray="1,5" points="2378,-70 2378,-274 2574,-274 2574,-70 2378,-70"/>
</g>
<g id="clust25" class="cluster">
<title>cluster_UATDropdownMenuModule_declarations</title>
<polygon fill="none" stroke="#000000" points="2399,-78 2399,-130 2553,-130 2553,-78 2399,-78"/>
</g>
<g id="clust28" class="cluster">
<title>cluster_UATDropdownMenuModule_exports</title>
<polygon fill="none" stroke="#000000" points="2398,-214 2398,-266 2554,-266 2554,-214 2398,-214"/>
</g>
<g id="clust31" class="cluster">
<title>cluster_UATDynamicComponentModule</title>
<polygon fill="none" stroke="#000000" stroke-dasharray="1,5" points="2774,-70 2774,-198 3020,-198 3020,-70 2774,-70"/>
</g>
<g id="clust32" class="cluster">
<title>cluster_UATDynamicComponentModule_declarations</title>
<polygon fill="none" stroke="#000000" points="2782,-78 2782,-130 3012,-130 3012,-78 2782,-78"/>
</g>
<g id="clust38" class="cluster">
<title>cluster_UATHamburgerMenuModule</title>
<polygon fill="none" stroke="#000000" stroke-dasharray="1,5" points="1454,-70 1454,-274 1786,-274 1786,-70 1454,-70"/>
</g>
<g id="clust39" class="cluster">
<title>cluster_UATHamburgerMenuModule_declarations</title>
<polygon fill="none" stroke="#000000" points="1465,-78 1465,-130 1775,-130 1775,-78 1465,-78"/>
</g>
<g id="clust43" class="cluster">
<title>cluster_UATHamburgerMenuModule_exports</title>
<polygon fill="none" stroke="#000000" points="1462,-214 1462,-266 1778,-266 1778,-214 1462,-214"/>
</g>
<g id="clust46" class="cluster">
<title>cluster_UATMultiSelectModule</title>
<polygon fill="none" stroke="#000000" stroke-dasharray="1,5" points="3028,-70 3028,-274 3238,-274 3238,-70 3028,-70"/>
</g>
<g id="clust47" class="cluster">
<title>cluster_UATMultiSelectModule_declarations</title>
<polygon fill="none" stroke="#000000" points="3037,-78 3037,-130 3229,-130 3229,-78 3037,-78"/>
</g>
<g id="clust50" class="cluster">
<title>cluster_UATMultiSelectModule_exports</title>
<polygon fill="none" stroke="#000000" points="3036,-214 3036,-266 3230,-266 3230,-214 3036,-214"/>
</g>
<g id="clust53" class="cluster">
<title>cluster_UATSlideoutMenuModule</title>
<polygon fill="none" stroke="#000000" stroke-dasharray="1,5" points="2582,-70 2582,-274 2766,-274 2766,-70 2582,-70"/>
</g>
<g id="clust54" class="cluster">
<title>cluster_UATSlideoutMenuModule_declarations</title>
<polygon fill="none" stroke="#000000" points="2604,-78 2604,-130 2744,-130 2744,-78 2604,-78"/>
</g>
<g id="clust57" class="cluster">
<title>cluster_UATSlideoutMenuModule_exports</title>
<polygon fill="none" stroke="#000000" points="2602,-214 2602,-266 2746,-266 2746,-214 2602,-214"/>
</g>
<g id="clust60" class="cluster">
<title>cluster_UATSlidingPanelModule</title>
<polygon fill="none" stroke="#000000" stroke-dasharray="1,5" points="802,-138 802,-206 1446,-206 1446,-138 802,-138"/>
</g>
<g id="clust61" class="cluster">
<title>cluster_UATSlidingPanelModule_declarations</title>
<polygon fill="none" stroke="#000000" points="1132,-146 1132,-198 1438,-198 1438,-146 1132,-146"/>
</g>
<g id="clust65" class="cluster">
<title>cluster_UATSlidingPanelModule_exports</title>
<polygon fill="none" stroke="#000000" points="810,-146 810,-198 1124,-198 1124,-146 810,-146"/>
</g>
<g id="clust68" class="cluster">
<title>cluster_UATToggleModule</title>
<polygon fill="none" stroke="#000000" stroke-dasharray="1,5" points="3246,-70 3246,-274 3390,-274 3390,-70 3246,-70"/>
</g>
<g id="clust69" class="cluster">
<title>cluster_UATToggleModule_declarations</title>
<polygon fill="none" stroke="#000000" points="3268,-78 3268,-130 3368,-130 3368,-78 3268,-78"/>
</g>
<g id="clust72" class="cluster">
<title>cluster_UATToggleModule_exports</title>
<polygon fill="none" stroke="#000000" points="3266,-214 3266,-266 3370,-266 3370,-214 3266,-214"/>
</g>
<!-- UATCollapsingMenu -->
<g id="node1" class="node">
<title>UATCollapsingMenu</title>
<polygon fill="#ffffb3" stroke="#000000" points="162.0926,-122 23.9074,-122 23.9074,-86 162.0926,-86 162.0926,-122"/>
<text text-anchor="middle" x="93" y="-99.8" font-family="Times,serif" font-size="14.00" fill="#000000">UATCollapsingMenu</text>
</g>
<!-- UATCollapsingMenuModule -->
<g id="node2" class="node">
<title>UATCollapsingMenuModule</title>
<polygon fill="#8dd3c7" stroke="#000000" points="346.6428,-190 343.6428,-194 322.6428,-194 319.6428,-190 165.3572,-190 165.3572,-154 346.6428,-154 346.6428,-190"/>
<text text-anchor="middle" x="256" y="-167.8" font-family="Times,serif" font-size="14.00" fill="#000000">UATCollapsingMenuModule</text>
</g>
<!-- UATCollapsingMenu&#45;&gt;UATCollapsingMenuModule -->
<g id="edge1" class="edge">
<title>UATCollapsingMenu&#45;&gt;UATCollapsingMenuModule</title>
<path fill="none" stroke="#000000" d="M162.229,-104C170.1636,-104 175.481,-104 175.481,-104 175.481,-104 175.481,-143.7772 175.481,-143.7772"/>
<polygon fill="#000000" stroke="#000000" points="171.9811,-143.7772 175.481,-153.7772 178.9811,-143.7773 171.9811,-143.7772"/>
</g>
<!-- UATCollapsingMenu  -->
<g id="node5" class="node">
<title>UATCollapsingMenu </title>
<polygon fill="#fb8072" stroke="#000000" points="326.5932,-258 185.4068,-258 185.4068,-222 326.5932,-222 326.5932,-258"/>
<text text-anchor="middle" x="256" y="-235.8" font-family="Times,serif" font-size="14.00" fill="#000000">UATCollapsingMenu </text>
</g>
<!-- UATCollapsingMenuModule&#45;&gt;UATCollapsingMenu  -->
<g id="edge4" class="edge">
<title>UATCollapsingMenuModule&#45;&gt;UATCollapsingMenu </title>
<path fill="none" stroke="#000000" stroke-dasharray="5,2" d="M256,-190.2228C256,-190.2228 256,-211.7269 256,-211.7269"/>
<polygon fill="#000000" stroke="#000000" points="252.5001,-211.7269 256,-221.7269 259.5001,-211.727 252.5001,-211.7269"/>
</g>
<!-- UATCommonModule -->
<g id="node3" class="node">
<title>UATCommonModule</title>
<polygon fill="#8dd3c7" stroke="#000000" points="326.4341,-122 323.4341,-126 302.4341,-126 299.4341,-122 185.5659,-122 185.5659,-86 326.4341,-86 326.4341,-122"/>
<text text-anchor="middle" x="256" y="-99.8" font-family="Times,serif" font-size="14.00" fill="#000000">UATCommonModule</text>
</g>
<!-- UATCommonModule&#45;&gt;UATCollapsingMenuModule -->
<g id="edge2" class="edge">
<title>UATCommonModule&#45;&gt;UATCollapsingMenuModule</title>
<path fill="none" stroke="#000000" d="M213.87,-122.2228C213.87,-122.2228 213.87,-143.7269 213.87,-143.7269"/>
<polygon fill="#000000" stroke="#000000" points="210.3701,-143.7269 213.87,-153.7269 217.3701,-143.727 210.3701,-143.7269"/>
</g>
<!-- UATMenuItem  -->
<g id="node7" class="node">
<title>UATMenuItem </title>
<polygon fill="#fb8072" stroke="#000000" points="650.0822,-190 543.9178,-190 543.9178,-154 650.0822,-154 650.0822,-190"/>
<text text-anchor="middle" x="597" y="-167.8" font-family="Times,serif" font-size="14.00" fill="#000000">UATMenuItem </text>
</g>
<!-- UATCommonModule&#45;&gt;UATMenuItem  -->
<g id="edge6" class="edge">
<title>UATCommonModule&#45;&gt;UATMenuItem </title>
<path fill="none" stroke="#000000" stroke-dasharray="5,2" d="M270.0433,-122.1804C270.0433,-135.0382 270.0433,-150 270.0433,-150 270.0433,-150 597,-150 597,-150 597,-150 597,-150.3832 597,-150.3832"/>
<polygon fill="#000000" stroke="#000000" points="593.5003,-143.832 597,-153.8321 600.5003,-143.8322 593.5003,-143.832"/>
</g>
<!-- UATHamburgerMenuModule -->
<g id="node20" class="node">
<title>UATHamburgerMenuModule</title>
<polygon fill="#8dd3c7" stroke="#000000" points="1646.2226,-190 1643.2226,-194 1622.2226,-194 1619.2226,-190 1461.7774,-190 1461.7774,-154 1646.2226,-154 1646.2226,-190"/>
<text text-anchor="middle" x="1554" y="-167.8" font-family="Times,serif" font-size="14.00" fill="#000000">UATHamburgerMenuModule</text>
</g>
<!-- UATCommonModule&#45;&gt;UATHamburgerMenuModule -->
<g id="edge19" class="edge">
<title>UATCommonModule&#45;&gt;UATHamburgerMenuModule</title>
<path fill="none" stroke="#000000" d="M298.13,-122.0664C298.13,-131.4587 298.13,-141 298.13,-141 298.13,-141 1465.3927,-141 1465.3927,-141 1465.3927,-141 1465.3927,-143.9672 1465.3927,-143.9672"/>
<polygon fill="#000000" stroke="#000000" points="1461.8928,-143.9671 1465.3927,-153.9672 1468.8928,-143.9672 1461.8928,-143.9671"/>
</g>
<!-- UATSlidingPanelModule -->
<g id="node4" class="node">
<title>UATSlidingPanelModule</title>
<polygon fill="#8dd3c7" stroke="#000000" points="503.8725,-122 500.8725,-126 479.8725,-126 476.8725,-122 344.1275,-122 344.1275,-86 503.8725,-86 503.8725,-122"/>
<text text-anchor="middle" x="424" y="-99.8" font-family="Times,serif" font-size="14.00" fill="#000000">UATSlidingPanelModule</text>
</g>
<!-- UATSlidingPanelModule&#45;&gt;UATCollapsingMenuModule -->
<g id="edge3" class="edge">
<title>UATSlidingPanelModule&#45;&gt;UATCollapsingMenuModule</title>
<path fill="none" stroke="#000000" d="M343.9853,-104C338.53,-104 335.1403,-104 335.1403,-104 335.1403,-104 335.1403,-143.7772 335.1403,-143.7772"/>
<polygon fill="#000000" stroke="#000000" points="331.6403,-143.7772 335.1403,-153.7772 338.6403,-143.7773 331.6403,-143.7772"/>
</g>
<!-- UATDropdownInputModule -->
<g id="node11" class="node">
<title>UATDropdownInputModule</title>
<polygon fill="#8dd3c7" stroke="#000000" points="2061.7408,-190 2058.7408,-194 2037.7408,-194 2034.7408,-190 1884.2592,-190 1884.2592,-154 2061.7408,-154 2061.7408,-190"/>
<text text-anchor="middle" x="1973" y="-167.8" font-family="Times,serif" font-size="14.00" fill="#000000">UATDropdownInputModule</text>
</g>
<!-- UATSlidingPanelModule&#45;&gt;UATDropdownInputModule -->
<g id="edge10" class="edge">
<title>UATSlidingPanelModule&#45;&gt;UATDropdownInputModule</title>
<path fill="none" stroke="#000000" d="M386.1,-122.2434C386.1,-129.4297 386.1,-136 386.1,-136 386.1,-136 1904.1183,-136 1904.1183,-136 1904.1183,-136 1904.1183,-143.5782 1904.1183,-143.5782"/>
<polygon fill="#000000" stroke="#000000" points="1900.6184,-143.5781 1904.1183,-153.5782 1907.6184,-143.5782 1900.6184,-143.5781"/>
</g>
<!-- UATDropdownMenuModule -->
<g id="node14" class="node">
<title>UATDropdownMenuModule</title>
<polygon fill="#8dd3c7" stroke="#000000" points="2566.3487,-190 2563.3487,-194 2542.3487,-194 2539.3487,-190 2385.6513,-190 2385.6513,-154 2566.3487,-154 2566.3487,-190"/>
<text text-anchor="middle" x="2476" y="-167.8" font-family="Times,serif" font-size="14.00" fill="#000000">UATDropdownMenuModule</text>
</g>
<!-- UATSlidingPanelModule&#45;&gt;UATDropdownMenuModule -->
<g id="edge13" class="edge">
<title>UATSlidingPanelModule&#45;&gt;UATDropdownMenuModule</title>
<path fill="none" stroke="#000000" d="M425.3787,-122.207C425.3787,-127.5549 425.3787,-132 425.3787,-132 425.3787,-132 2396.4631,-132 2396.4631,-132 2396.4631,-132 2396.4631,-143.8726 2396.4631,-143.8726"/>
<polygon fill="#000000" stroke="#000000" points="2392.9632,-143.8725 2396.4631,-153.8726 2399.9632,-143.8726 2392.9632,-143.8725"/>
</g>
<!-- UATSlidingPanelModule&#45;&gt;UATHamburgerMenuModule -->
<g id="edge18" class="edge">
<title>UATSlidingPanelModule&#45;&gt;UATHamburgerMenuModule</title>
<path fill="none" stroke="#000000" d="M504.2755,-92C749.0095,-92 1469.1465,-92 1469.1465,-92 1469.1465,-92 1469.1465,-143.8468 1469.1465,-143.8468"/>
<polygon fill="#000000" stroke="#000000" points="1465.6466,-143.8467 1469.1465,-153.8468 1472.6466,-143.8468 1465.6466,-143.8467"/>
</g>
<!-- UATSlideoutMenuModule -->
<g id="node27" class="node">
<title>UATSlideoutMenuModule</title>
<polygon fill="#8dd3c7" stroke="#000000" points="2757.6442,-190 2754.6442,-194 2733.6442,-194 2730.6442,-190 2590.3558,-190 2590.3558,-154 2757.6442,-154 2757.6442,-190"/>
<text text-anchor="middle" x="2674" y="-167.8" font-family="Times,serif" font-size="14.00" fill="#000000">UATSlideoutMenuModule</text>
</g>
<!-- UATSlidingPanelModule&#45;&gt;UATSlideoutMenuModule -->
<g id="edge25" class="edge">
<title>UATSlidingPanelModule&#45;&gt;UATSlideoutMenuModule</title>
<path fill="none" stroke="#000000" d="M464.6575,-122.1223C464.6575,-124.9729 464.6575,-127 464.6575,-127 464.6575,-127 2601.0656,-127 2601.0656,-127 2601.0656,-127 2601.0656,-143.9561 2601.0656,-143.9561"/>
<polygon fill="#000000" stroke="#000000" points="2597.5656,-143.956 2601.0656,-153.9561 2604.5656,-143.9561 2597.5656,-143.956"/>
</g>
<!-- UATSlidingPanel  -->
<g id="node31" class="node">
<title>UATSlidingPanel </title>
<polygon fill="#fb8072" stroke="#000000" points="1115.8227,-190 996.1773,-190 996.1773,-154 1115.8227,-154 1115.8227,-190"/>
<text text-anchor="middle" x="1056" y="-167.8" font-family="Times,serif" font-size="14.00" fill="#000000">UATSlidingPanel </text>
</g>
<!-- UATSlidingPanelModule&#45;&gt;UATSlidingPanel  -->
<g id="edge29" class="edge">
<title>UATSlidingPanelModule&#45;&gt;UATSlidingPanel </title>
<path fill="none" stroke="#000000" stroke-dasharray="5,2" d="M504.0432,-110C674.1056,-110 1056,-110 1056,-110 1056,-110 1056,-143.7333 1056,-143.7333"/>
<polygon fill="#000000" stroke="#000000" points="1052.5001,-143.7333 1056,-153.7333 1059.5001,-143.7333 1052.5001,-143.7333"/>
</g>
<!-- UATSlidingPanelToggle  -->
<g id="node32" class="node">
<title>UATSlidingPanelToggle </title>
<polygon fill="#fb8072" stroke="#000000" points="977.9811,-190 818.0189,-190 818.0189,-154 977.9811,-154 977.9811,-190"/>
<text text-anchor="middle" x="898" y="-167.8" font-family="Times,serif" font-size="14.00" fill="#000000">UATSlidingPanelToggle </text>
</g>
<!-- UATSlidingPanelModule&#45;&gt;UATSlidingPanelToggle  -->
<g id="edge30" class="edge">
<title>UATSlidingPanelModule&#45;&gt;UATSlidingPanelToggle </title>
<path fill="none" stroke="#000000" stroke-dasharray="5,2" d="M504.1395,-116C639.3001,-116 898,-116 898,-116 898,-116 898,-143.973 898,-143.973"/>
<polygon fill="#000000" stroke="#000000" points="894.5001,-143.973 898,-153.973 901.5001,-143.973 894.5001,-143.973"/>
</g>
<!-- UATMenuItem -->
<g id="node6" class="node">
<title>UATMenuItem</title>
<polygon fill="#ffffb3" stroke="#000000" points="777.5814,-190 674.4186,-190 674.4186,-154 777.5814,-154 777.5814,-190"/>
<text text-anchor="middle" x="726" y="-167.8" font-family="Times,serif" font-size="14.00" fill="#000000">UATMenuItem</text>
</g>
<!-- UATMenuItem&#45;&gt;UATCommonModule -->
<g id="edge5" class="edge">
<title>UATMenuItem&#45;&gt;UATCommonModule</title>
<path fill="none" stroke="#000000" d="M726,-153.8408C726,-148.9567 726,-145 726,-145 726,-145 241.9567,-145 241.9567,-145 241.9567,-145 241.9567,-132.1025 241.9567,-132.1025"/>
<polygon fill="#000000" stroke="#000000" points="245.4568,-132.1025 241.9567,-122.1025 238.4568,-132.1026 245.4568,-132.1025"/>
</g>
<!-- UATDropdownInput -->
<g id="node8" class="node">
<title>UATDropdownInput</title>
<polygon fill="#ffffb3" stroke="#000000" points="1944.1909,-122 1809.8091,-122 1809.8091,-86 1944.1909,-86 1944.1909,-122"/>
<text text-anchor="middle" x="1877" y="-99.8" font-family="Times,serif" font-size="14.00" fill="#000000">UATDropdownInput</text>
</g>
<!-- UATDropdownInput&#45;&gt;UATDropdownInputModule -->
<g id="edge7" class="edge">
<title>UATDropdownInput&#45;&gt;UATDropdownInputModule</title>
<path fill="none" stroke="#000000" d="M1924.1068,-122.2228C1924.1068,-122.2228 1924.1068,-143.7269 1924.1068,-143.7269"/>
<polygon fill="#000000" stroke="#000000" points="1920.6069,-143.7269 1924.1068,-153.7269 1927.6069,-143.727 1920.6069,-143.7269"/>
</g>
<!-- UATDropdownInputDirective -->
<g id="node9" class="node">
<title>UATDropdownInputDirective</title>
<polygon fill="#ffffb3" stroke="#000000" points="2354.2738,-122 2167.7262,-122 2167.7262,-86 2354.2738,-86 2354.2738,-122"/>
<text text-anchor="middle" x="2261" y="-99.8" font-family="Times,serif" font-size="14.00" fill="#000000">UATDropdownInputDirective</text>
</g>
<!-- UATDropdownInputDirective&#45;&gt;UATDropdownInputModule -->
<g id="edge8" class="edge">
<title>UATDropdownInputDirective&#45;&gt;UATDropdownInputModule</title>
<path fill="none" stroke="#000000" d="M2261,-122.2228C2261,-142.3652 2261,-172 2261,-172 2261,-172 2071.7595,-172 2071.7595,-172"/>
<polygon fill="#000000" stroke="#000000" points="2071.7595,-168.5001 2061.7595,-172 2071.7594,-175.5001 2071.7595,-168.5001"/>
</g>
<!-- UATDropdownInputItemsList -->
<g id="node10" class="node">
<title>UATDropdownInputItemsList</title>
<polygon fill="#ffffb3" stroke="#000000" points="2149.5702,-122 1962.4298,-122 1962.4298,-86 2149.5702,-86 2149.5702,-122"/>
<text text-anchor="middle" x="2056" y="-99.8" font-family="Times,serif" font-size="14.00" fill="#000000">UATDropdownInputItemsList</text>
</g>
<!-- UATDropdownInputItemsList&#45;&gt;UATDropdownInputModule -->
<g id="edge9" class="edge">
<title>UATDropdownInputItemsList&#45;&gt;UATDropdownInputModule</title>
<path fill="none" stroke="#000000" d="M2012.1676,-122.2228C2012.1676,-122.2228 2012.1676,-143.7269 2012.1676,-143.7269"/>
<polygon fill="#000000" stroke="#000000" points="2008.6677,-143.7269 2012.1676,-153.7269 2015.6677,-143.727 2008.6677,-143.7269"/>
</g>
<!-- UATDropdownInput  -->
<g id="node12" class="node">
<title>UATDropdownInput </title>
<polygon fill="#fb8072" stroke="#000000" points="2041.6911,-258 1904.3089,-258 1904.3089,-222 2041.6911,-222 2041.6911,-258"/>
<text text-anchor="middle" x="1973" y="-235.8" font-family="Times,serif" font-size="14.00" fill="#000000">UATDropdownInput </text>
</g>
<!-- UATDropdownInputModule&#45;&gt;UATDropdownInput  -->
<g id="edge11" class="edge">
<title>UATDropdownInputModule&#45;&gt;UATDropdownInput </title>
<path fill="none" stroke="#000000" stroke-dasharray="5,2" d="M1973,-190.2228C1973,-190.2228 1973,-211.7269 1973,-211.7269"/>
<polygon fill="#000000" stroke="#000000" points="1969.5001,-211.7269 1973,-221.7269 1976.5001,-211.727 1969.5001,-211.7269"/>
</g>
<!-- UATDropdownMenu -->
<g id="node13" class="node">
<title>UATDropdownMenu</title>
<polygon fill="#ffffb3" stroke="#000000" points="2544.7991,-122 2407.2009,-122 2407.2009,-86 2544.7991,-86 2544.7991,-122"/>
<text text-anchor="middle" x="2476" y="-99.8" font-family="Times,serif" font-size="14.00" fill="#000000">UATDropdownMenu</text>
</g>
<!-- UATDropdownMenu&#45;&gt;UATDropdownMenuModule -->
<g id="edge12" class="edge">
<title>UATDropdownMenu&#45;&gt;UATDropdownMenuModule</title>
<path fill="none" stroke="#000000" d="M2476,-122.2228C2476,-122.2228 2476,-143.7269 2476,-143.7269"/>
<polygon fill="#000000" stroke="#000000" points="2472.5001,-143.7269 2476,-153.7269 2479.5001,-143.727 2472.5001,-143.7269"/>
</g>
<!-- UATDropdownMenu  -->
<g id="node15" class="node">
<title>UATDropdownMenu </title>
<polygon fill="#fb8072" stroke="#000000" points="2546.2989,-258 2405.7011,-258 2405.7011,-222 2546.2989,-222 2546.2989,-258"/>
<text text-anchor="middle" x="2476" y="-235.8" font-family="Times,serif" font-size="14.00" fill="#000000">UATDropdownMenu </text>
</g>
<!-- UATDropdownMenuModule&#45;&gt;UATDropdownMenu  -->
<g id="edge14" class="edge">
<title>UATDropdownMenuModule&#45;&gt;UATDropdownMenu </title>
<path fill="none" stroke="#000000" stroke-dasharray="5,2" d="M2476,-190.2228C2476,-190.2228 2476,-211.7269 2476,-211.7269"/>
<polygon fill="#000000" stroke="#000000" points="2472.5001,-211.7269 2476,-221.7269 2479.5001,-211.727 2472.5001,-211.7269"/>
</g>
<!-- UATDynamicComponentDirective -->
<g id="node16" class="node">
<title>UATDynamicComponentDirective</title>
<polygon fill="#ffffb3" stroke="#000000" points="3003.9986,-122 2790.0014,-122 2790.0014,-86 3003.9986,-86 3003.9986,-122"/>
<text text-anchor="middle" x="2897" y="-99.8" font-family="Times,serif" font-size="14.00" fill="#000000">UATDynamicComponentDirective</text>
</g>
<!-- UATDynamicComponentModule -->
<g id="node17" class="node">
<title>UATDynamicComponentModule</title>
<polygon fill="#8dd3c7" stroke="#000000" points="2999.465,-190 2996.465,-194 2975.465,-194 2972.465,-190 2794.535,-190 2794.535,-154 2999.465,-154 2999.465,-190"/>
<text text-anchor="middle" x="2897" y="-167.8" font-family="Times,serif" font-size="14.00" fill="#000000">UATDynamicComponentModule</text>
</g>
<!-- UATDynamicComponentDirective&#45;&gt;UATDynamicComponentModule -->
<g id="edge15" class="edge">
<title>UATDynamicComponentDirective&#45;&gt;UATDynamicComponentModule</title>
<path fill="none" stroke="#000000" d="M2897,-122.2228C2897,-122.2228 2897,-143.7269 2897,-143.7269"/>
<polygon fill="#000000" stroke="#000000" points="2893.5001,-143.7269 2897,-153.7269 2900.5001,-143.727 2893.5001,-143.7269"/>
</g>
<!-- UATHamburgerMenu -->
<g id="node18" class="node">
<title>UATHamburgerMenu</title>
<polygon fill="#ffffb3" stroke="#000000" points="1766.6727,-122 1625.3273,-122 1625.3273,-86 1766.6727,-86 1766.6727,-122"/>
<text text-anchor="middle" x="1696" y="-99.8" font-family="Times,serif" font-size="14.00" fill="#000000">UATHamburgerMenu</text>
</g>
<!-- UATHamburgerMenu&#45;&gt;UATHamburgerMenuModule -->
<g id="edge16" class="edge">
<title>UATHamburgerMenu&#45;&gt;UATHamburgerMenuModule</title>
<path fill="none" stroke="#000000" d="M1635.8875,-122.2228C1635.8875,-122.2228 1635.8875,-143.7269 1635.8875,-143.7269"/>
<polygon fill="#000000" stroke="#000000" points="1632.3875,-143.7269 1635.8875,-153.7269 1639.3875,-143.727 1632.3875,-143.7269"/>
</g>
<!-- UATMenuItemRight -->
<g id="node19" class="node">
<title>UATMenuItemRight</title>
<polygon fill="#ffffb3" stroke="#000000" points="1607.1993,-122 1472.8007,-122 1472.8007,-86 1607.1993,-86 1607.1993,-122"/>
<text text-anchor="middle" x="1540" y="-99.8" font-family="Times,serif" font-size="14.00" fill="#000000">UATMenuItemRight</text>
</g>
<!-- UATMenuItemRight&#45;&gt;UATHamburgerMenuModule -->
<g id="edge17" class="edge">
<title>UATMenuItemRight&#45;&gt;UATHamburgerMenuModule</title>
<path fill="none" stroke="#000000" d="M1540,-122.2228C1540,-122.2228 1540,-143.7269 1540,-143.7269"/>
<polygon fill="#000000" stroke="#000000" points="1536.5001,-143.7269 1540,-153.7269 1543.5001,-143.727 1536.5001,-143.7269"/>
</g>
<!-- UATHamburgerMenu  -->
<g id="node21" class="node">
<title>UATHamburgerMenu </title>
<polygon fill="#fb8072" stroke="#000000" points="1770.173,-258 1625.827,-258 1625.827,-222 1770.173,-222 1770.173,-258"/>
<text text-anchor="middle" x="1698" y="-235.8" font-family="Times,serif" font-size="14.00" fill="#000000">UATHamburgerMenu </text>
</g>
<!-- UATHamburgerMenuModule&#45;&gt;UATHamburgerMenu  -->
<g id="edge20" class="edge">
<title>UATHamburgerMenuModule&#45;&gt;UATHamburgerMenu </title>
<path fill="none" stroke="#000000" stroke-dasharray="5,2" d="M1636.0125,-190.2228C1636.0125,-190.2228 1636.0125,-211.7269 1636.0125,-211.7269"/>
<polygon fill="#000000" stroke="#000000" points="1632.5125,-211.7269 1636.0125,-221.7269 1639.5125,-211.727 1632.5125,-211.7269"/>
</g>
<!-- UATMenuItemRight  -->
<g id="node22" class="node">
<title>UATMenuItemRight </title>
<polygon fill="#fb8072" stroke="#000000" points="1607.6995,-258 1470.3005,-258 1470.3005,-222 1607.6995,-222 1607.6995,-258"/>
<text text-anchor="middle" x="1539" y="-235.8" font-family="Times,serif" font-size="14.00" fill="#000000">UATMenuItemRight </text>
</g>
<!-- UATHamburgerMenuModule&#45;&gt;UATMenuItemRight  -->
<g id="edge21" class="edge">
<title>UATHamburgerMenuModule&#45;&gt;UATMenuItemRight </title>
<path fill="none" stroke="#000000" stroke-dasharray="5,2" d="M1539,-190.2228C1539,-190.2228 1539,-211.7269 1539,-211.7269"/>
<polygon fill="#000000" stroke="#000000" points="1535.5001,-211.7269 1539,-221.7269 1542.5001,-211.727 1535.5001,-211.7269"/>
</g>
<!-- UATMultiSelectComponent -->
<g id="node23" class="node">
<title>UATMultiSelectComponent</title>
<polygon fill="#ffffb3" stroke="#000000" points="3220.9227,-122 3045.0773,-122 3045.0773,-86 3220.9227,-86 3220.9227,-122"/>
<text text-anchor="middle" x="3133" y="-99.8" font-family="Times,serif" font-size="14.00" fill="#000000">UATMultiSelectComponent</text>
</g>
<!-- UATMultiSelectModule -->
<g id="node24" class="node">
<title>UATMultiSelectModule</title>
<polygon fill="#8dd3c7" stroke="#000000" points="3209.64,-190 3206.64,-194 3185.64,-194 3182.64,-190 3056.36,-190 3056.36,-154 3209.64,-154 3209.64,-190"/>
<text text-anchor="middle" x="3133" y="-167.8" font-family="Times,serif" font-size="14.00" fill="#000000">UATMultiSelectModule</text>
</g>
<!-- UATMultiSelectComponent&#45;&gt;UATMultiSelectModule -->
<g id="edge22" class="edge">
<title>UATMultiSelectComponent&#45;&gt;UATMultiSelectModule</title>
<path fill="none" stroke="#000000" d="M3133,-122.2228C3133,-122.2228 3133,-143.7269 3133,-143.7269"/>
<polygon fill="#000000" stroke="#000000" points="3129.5001,-143.7269 3133,-153.7269 3136.5001,-143.727 3129.5001,-143.7269"/>
</g>
<!-- UATMultiSelectComponent  -->
<g id="node25" class="node">
<title>UATMultiSelectComponent </title>
<polygon fill="#fb8072" stroke="#000000" points="3222.4222,-258 3043.5778,-258 3043.5778,-222 3222.4222,-222 3222.4222,-258"/>
<text text-anchor="middle" x="3133" y="-235.8" font-family="Times,serif" font-size="14.00" fill="#000000">UATMultiSelectComponent </text>
</g>
<!-- UATMultiSelectModule&#45;&gt;UATMultiSelectComponent  -->
<g id="edge23" class="edge">
<title>UATMultiSelectModule&#45;&gt;UATMultiSelectComponent </title>
<path fill="none" stroke="#000000" stroke-dasharray="5,2" d="M3133,-190.2228C3133,-190.2228 3133,-211.7269 3133,-211.7269"/>
<polygon fill="#000000" stroke="#000000" points="3129.5001,-211.7269 3133,-221.7269 3136.5001,-211.727 3129.5001,-211.7269"/>
</g>
<!-- UATSlideoutMenu -->
<g id="node26" class="node">
<title>UATSlideoutMenu</title>
<polygon fill="#ffffb3" stroke="#000000" points="2736.094,-122 2611.906,-122 2611.906,-86 2736.094,-86 2736.094,-122"/>
<text text-anchor="middle" x="2674" y="-99.8" font-family="Times,serif" font-size="14.00" fill="#000000">UATSlideoutMenu</text>
</g>
<!-- UATSlideoutMenu&#45;&gt;UATSlideoutMenuModule -->
<g id="edge24" class="edge">
<title>UATSlideoutMenu&#45;&gt;UATSlideoutMenuModule</title>
<path fill="none" stroke="#000000" d="M2674,-122.2228C2674,-122.2228 2674,-143.7269 2674,-143.7269"/>
<polygon fill="#000000" stroke="#000000" points="2670.5001,-143.7269 2674,-153.7269 2677.5001,-143.727 2670.5001,-143.7269"/>
</g>
<!-- UATSlideoutMenu  -->
<g id="node28" class="node">
<title>UATSlideoutMenu </title>
<polygon fill="#fb8072" stroke="#000000" points="2737.5946,-258 2610.4054,-258 2610.4054,-222 2737.5946,-222 2737.5946,-258"/>
<text text-anchor="middle" x="2674" y="-235.8" font-family="Times,serif" font-size="14.00" fill="#000000">UATSlideoutMenu </text>
</g>
<!-- UATSlideoutMenuModule&#45;&gt;UATSlideoutMenu  -->
<g id="edge26" class="edge">
<title>UATSlideoutMenuModule&#45;&gt;UATSlideoutMenu </title>
<path fill="none" stroke="#000000" stroke-dasharray="5,2" d="M2674,-190.2228C2674,-190.2228 2674,-211.7269 2674,-211.7269"/>
<polygon fill="#000000" stroke="#000000" points="2670.5001,-211.7269 2674,-221.7269 2677.5001,-211.727 2670.5001,-211.7269"/>
</g>
<!-- UATSlidingPanel -->
<g id="node29" class="node">
<title>UATSlidingPanel</title>
<polygon fill="#ffffb3" stroke="#000000" points="1430.323,-190 1313.677,-190 1313.677,-154 1430.323,-154 1430.323,-190"/>
<text text-anchor="middle" x="1372" y="-167.8" font-family="Times,serif" font-size="14.00" fill="#000000">UATSlidingPanel</text>
</g>
<!-- UATSlidingPanel&#45;&gt;UATSlidingPanelModule -->
<g id="edge27" class="edge">
<title>UATSlidingPanel&#45;&gt;UATSlidingPanelModule</title>
<path fill="none" stroke="#000000" d="M1372,-153.7079C1372,-131.7943 1372,-98 1372,-98 1372,-98 514.0089,-98 514.0089,-98"/>
<polygon fill="#000000" stroke="#000000" points="514.009,-94.5001 504.0089,-98 514.0089,-101.5001 514.009,-94.5001"/>
</g>
<!-- UATSlidingPanelToggle -->
<g id="node30" class="node">
<title>UATSlidingPanelToggle</title>
<polygon fill="#ffffb3" stroke="#000000" points="1295.9804,-190 1140.0196,-190 1140.0196,-154 1295.9804,-154 1295.9804,-190"/>
<text text-anchor="middle" x="1218" y="-167.8" font-family="Times,serif" font-size="14.00" fill="#000000">UATSlidingPanelToggle</text>
</g>
<!-- UATSlidingPanelToggle&#45;&gt;UATSlidingPanelModule -->
<g id="edge28" class="edge">
<title>UATSlidingPanelToggle&#45;&gt;UATSlidingPanelModule</title>
<path fill="none" stroke="#000000" d="M1218,-153.7772C1218,-133.6348 1218,-104 1218,-104 1218,-104 514.1345,-104 514.1345,-104"/>
<polygon fill="#000000" stroke="#000000" points="514.1345,-100.5001 504.1345,-104 514.1344,-107.5001 514.1345,-100.5001"/>
</g>
<!-- UATToggle -->
<g id="node33" class="node">
<title>UATToggle</title>
<polygon fill="#ffffb3" stroke="#000000" points="3360.4247,-122 3275.5753,-122 3275.5753,-86 3360.4247,-86 3360.4247,-122"/>
<text text-anchor="middle" x="3318" y="-99.8" font-family="Times,serif" font-size="14.00" fill="#000000">UATToggle</text>
</g>
<!-- UATToggleModule -->
<g id="node34" class="node">
<title>UATToggleModule</title>
<polygon fill="#8dd3c7" stroke="#000000" points="3381.9734,-190 3378.9734,-194 3357.9734,-194 3354.9734,-190 3254.0266,-190 3254.0266,-154 3381.9734,-154 3381.9734,-190"/>
<text text-anchor="middle" x="3318" y="-167.8" font-family="Times,serif" font-size="14.00" fill="#000000">UATToggleModule</text>
</g>
<!-- UATToggle&#45;&gt;UATToggleModule -->
<g id="edge31" class="edge">
<title>UATToggle&#45;&gt;UATToggleModule</title>
<path fill="none" stroke="#000000" d="M3318,-122.2228C3318,-122.2228 3318,-143.7269 3318,-143.7269"/>
<polygon fill="#000000" stroke="#000000" points="3314.5001,-143.7269 3318,-153.7269 3321.5001,-143.727 3314.5001,-143.7269"/>
</g>
<!-- UATToggle  -->
<g id="node35" class="node">
<title>UATToggle </title>
<polygon fill="#fb8072" stroke="#000000" points="3361.9236,-258 3274.0764,-258 3274.0764,-222 3361.9236,-222 3361.9236,-258"/>
<text text-anchor="middle" x="3318" y="-235.8" font-family="Times,serif" font-size="14.00" fill="#000000">UATToggle </text>
</g>
<!-- UATToggleModule&#45;&gt;UATToggle  -->
<g id="edge32" class="edge">
<title>UATToggleModule&#45;&gt;UATToggle </title>
<path fill="none" stroke="#000000" stroke-dasharray="5,2" d="M3318,-190.2228C3318,-190.2228 3318,-211.7269 3318,-211.7269"/>
<polygon fill="#000000" stroke="#000000" points="3314.5001,-211.7269 3318,-221.7269 3321.5001,-211.727 3314.5001,-211.7269"/>
</g>
</g>
</svg>
