<?xml version="1.0" encoding="UTF-8" standalone="no"?>
<!DOCTYPE svg PUBLIC "-//W3C//DTD SVG 1.1//EN"
 "http://www.w3.org/Graphics/SVG/1.1/DTD/svg11.dtd">
<!-- Generated by graphviz version 2.40.1 (20161225.0304)
 -->
<!-- Title: dependencies Pages: 1 -->
<svg width="504pt" height="284pt"
 viewBox="0.00 0.00 504.00 284.00" xmlns="http://www.w3.org/2000/svg" xmlns:xlink="http://www.w3.org/1999/xlink">
<g id="graph0" class="graph" transform="scale(1 1) rotate(0) translate(4 280)">
<title>dependencies</title>
<polygon fill="#ffffff" stroke="transparent" points="-4,4 -4,-280 500,-280 500,4 -4,4"/>
<text text-anchor="start" x="227.0091" y="-42.4" font-family="sans-serif" font-weight="bold" font-size="14.00" fill="#000000">Legend</text>
<polygon fill="#ffffb3" stroke="transparent" points="14,-10 14,-30 34,-30 34,-10 14,-10"/>
<text text-anchor="start" x="37.629" y="-15.4" font-family="sans-serif" font-size="14.00" fill="#000000"> &#160;Declarations</text>
<polygon fill="#8dd3c7" stroke="transparent" points="127,-10 127,-30 147,-30 147,-10 127,-10"/>
<text text-anchor="start" x="150.7251" y="-15.4" font-family="sans-serif" font-size="14.00" fill="#000000"> &#160;Module</text>
<polygon fill="#80b1d3" stroke="transparent" points="213,-10 213,-30 233,-30 233,-10 213,-10"/>
<text text-anchor="start" x="236.7812" y="-15.4" font-family="sans-serif" font-size="14.00" fill="#000000"> &#160;Bootstrap</text>
<polygon fill="#fdb462" stroke="transparent" points="310,-10 310,-30 330,-30 330,-10 310,-10"/>
<text text-anchor="start" x="333.6732" y="-15.4" font-family="sans-serif" font-size="14.00" fill="#000000"> &#160;Providers</text>
<polygon fill="#fb8072" stroke="transparent" points="406,-10 406,-30 426,-30 426,-10 406,-10"/>
<text text-anchor="start" x="429.7258" y="-15.4" font-family="sans-serif" font-size="14.00" fill="#000000"> &#160;Exports</text>
<g id="clust1" class="cluster">
<title>cluster_UATSlidingPanelModule</title>
<polygon fill="none" stroke="#000000" stroke-dasharray="1,5" points="83,-70 83,-268 413,-268 413,-70 83,-70"/>
</g>
<g id="clust2" class="cluster">
<title>cluster_UATSlidingPanelModule_declarations</title>
<polygon fill="none" stroke="#000000" points="95,-78 95,-130 401,-130 401,-78 95,-78"/>
</g>
<g id="clust6" class="cluster">
<title>cluster_UATSlidingPanelModule_exports</title>
<polygon fill="none" stroke="#000000" points="91,-208 91,-260 405,-260 405,-208 91,-208"/>
</g>
<!-- UATSlidingPanel -->
<g id="node1" class="node">
<title>UATSlidingPanel</title>
<polygon fill="#ffffb3" stroke="#000000" points="393.323,-122 276.677,-122 276.677,-86 393.323,-86 393.323,-122"/>
<text text-anchor="middle" x="335" y="-99.8" font-family="Times,serif" font-size="14.00" fill="#000000">UATSlidingPanel</text>
</g>
<!-- UATSlidingPanelModule -->
<g id="node3" class="node">
<title>UATSlidingPanelModule</title>
<polygon fill="#8dd3c7" stroke="#000000" points="261.8725,-187 258.8725,-191 237.8725,-191 234.8725,-187 102.1275,-187 102.1275,-151 261.8725,-151 261.8725,-187"/>
<text text-anchor="middle" x="182" y="-164.8" font-family="Times,serif" font-size="14.00" fill="#000000">UATSlidingPanelModule</text>
</g>
<!-- UATSlidingPanel&#45;&gt;UATSlidingPanelModule -->
<g id="edge1" class="edge">
<title>UATSlidingPanel&#45;&gt;UATSlidingPanelModule</title>
<path fill="none" stroke="#000000" d="M354.4704,-122.0225C354.4704,-139.3734 354.4704,-163 354.4704,-163 354.4704,-163 271.9242,-163 271.9242,-163"/>
<polygon fill="#000000" stroke="#000000" points="271.9242,-159.5001 261.9242,-163 271.9241,-166.5001 271.9242,-159.5001"/>
</g>
<!-- UATSlidingPanelToggle -->
<g id="node2" class="node">
<title>UATSlidingPanelToggle</title>
<polygon fill="#ffffb3" stroke="#000000" points="258.9804,-122 103.0196,-122 103.0196,-86 258.9804,-86 258.9804,-122"/>
<text text-anchor="middle" x="181" y="-99.8" font-family="Times,serif" font-size="14.00" fill="#000000">UATSlidingPanelToggle</text>
</g>
<!-- UATSlidingPanelToggle&#45;&gt;UATSlidingPanelModule -->
<g id="edge2" class="edge">
<title>UATSlidingPanelToggle&#45;&gt;UATSlidingPanelModule</title>
<path fill="none" stroke="#000000" d="M181,-122.1061C181,-122.1061 181,-140.991 181,-140.991"/>
<polygon fill="#000000" stroke="#000000" points="177.5001,-140.9909 181,-150.991 184.5001,-140.991 177.5001,-140.9909"/>
</g>
<!-- UATSlidingPanel  -->
<g id="node4" class="node">
<title>UATSlidingPanel </title>
<polygon fill="#fb8072" stroke="#000000" points="396.8227,-252 277.1773,-252 277.1773,-216 396.8227,-216 396.8227,-252"/>
<text text-anchor="middle" x="337" y="-229.8" font-family="Times,serif" font-size="14.00" fill="#000000">UATSlidingPanel </text>
</g>
<!-- UATSlidingPanelModule&#45;&gt;UATSlidingPanel  -->
<g id="edge3" class="edge">
<title>UATSlidingPanelModule&#45;&gt;UATSlidingPanel </title>
<path fill="none" stroke="#000000" stroke-dasharray="5,2" d="M262.1371,-175C290.6285,-175 315.7796,-175 315.7796,-175 315.7796,-175 315.7796,-205.9775 315.7796,-205.9775"/>
<polygon fill="#000000" stroke="#000000" points="312.2797,-205.9774 315.7796,-215.9775 319.2797,-205.9775 312.2797,-205.9774"/>
</g>
<!-- UATSlidingPanelToggle  -->
<g id="node5" class="node">
<title>UATSlidingPanelToggle </title>
<polygon fill="#fb8072" stroke="#000000" points="258.9811,-252 99.0189,-252 99.0189,-216 258.9811,-216 258.9811,-252"/>
<text text-anchor="middle" x="179" y="-229.8" font-family="Times,serif" font-size="14.00" fill="#000000">UATSlidingPanelToggle </text>
</g>
<!-- UATSlidingPanelModule&#45;&gt;UATSlidingPanelToggle  -->
<g id="edge4" class="edge">
<title>UATSlidingPanelModule&#45;&gt;UATSlidingPanelToggle </title>
<path fill="none" stroke="#000000" stroke-dasharray="5,2" d="M180.402,-187.1061C180.402,-187.1061 180.402,-205.991 180.402,-205.991"/>
<polygon fill="#000000" stroke="#000000" points="176.9021,-205.9909 180.402,-215.991 183.9021,-205.991 176.9021,-205.9909"/>
</g>
</g>
</svg>
