<?xml version="1.0" encoding="UTF-8" standalone="no"?>
<!DOCTYPE svg PUBLIC "-//W3C//DTD SVG 1.1//EN"
 "http://www.w3.org/Graphics/SVG/1.1/DTD/svg11.dtd">
<!-- Generated by graphviz version 2.40.1 (20161225.0304)
 -->
<!-- Title: dependencies Pages: 1 -->
<svg width="504pt" height="284pt"
 viewBox="0.00 0.00 504.00 284.00" xmlns="http://www.w3.org/2000/svg" xmlns:xlink="http://www.w3.org/1999/xlink">
<g id="graph0" class="graph" transform="scale(1 1) rotate(0) translate(4 280)">
<title>dependencies</title>
<polygon fill="#ffffff" stroke="transparent" points="-4,4 -4,-280 500,-280 500,4 -4,4"/>
<text text-anchor="start" x="227.0091" y="-42.4" font-family="sans-serif" font-weight="bold" font-size="14.00" fill="#000000">Legend</text>
<polygon fill="#ffffb3" stroke="transparent" points="14,-10 14,-30 34,-30 34,-10 14,-10"/>
<text text-anchor="start" x="37.629" y="-15.4" font-family="sans-serif" font-size="14.00" fill="#000000"> &#160;Declarations</text>
<polygon fill="#8dd3c7" stroke="transparent" points="127,-10 127,-30 147,-30 147,-10 127,-10"/>
<text text-anchor="start" x="150.7251" y="-15.4" font-family="sans-serif" font-size="14.00" fill="#000000"> &#160;Module</text>
<polygon fill="#80b1d3" stroke="transparent" points="213,-10 213,-30 233,-30 233,-10 213,-10"/>
<text text-anchor="start" x="236.7812" y="-15.4" font-family="sans-serif" font-size="14.00" fill="#000000"> &#160;Bootstrap</text>
<polygon fill="#fdb462" stroke="transparent" points="310,-10 310,-30 330,-30 330,-10 310,-10"/>
<text text-anchor="start" x="333.6732" y="-15.4" font-family="sans-serif" font-size="14.00" fill="#000000"> &#160;Providers</text>
<polygon fill="#fb8072" stroke="transparent" points="406,-10 406,-30 426,-30 426,-10 406,-10"/>
<text text-anchor="start" x="429.7258" y="-15.4" font-family="sans-serif" font-size="14.00" fill="#000000"> &#160;Exports</text>
<g id="clust1" class="cluster">
<title>cluster_UATDropdownMenuModule</title>
<polygon fill="none" stroke="#000000" stroke-dasharray="1,5" points="71,-70 71,-268 425,-268 425,-70 71,-70"/>
</g>
<g id="clust2" class="cluster">
<title>cluster_UATDropdownMenuModule_declarations</title>
<polygon fill="none" stroke="#000000" points="263,-78 263,-130 417,-130 417,-78 263,-78"/>
</g>
<g id="clust4" class="cluster">
<title>cluster_UATDropdownMenuModule_imports</title>
<polygon fill="none" stroke="#000000" points="79,-78 79,-130 255,-130 255,-78 79,-78"/>
</g>
<g id="clust5" class="cluster">
<title>cluster_UATDropdownMenuModule_exports</title>
<polygon fill="none" stroke="#000000" points="170,-208 170,-260 326,-260 326,-208 170,-208"/>
</g>
<!-- UATDropdownMenu -->
<g id="node1" class="node">
<title>UATDropdownMenu</title>
<polygon fill="#ffffb3" stroke="#000000" points="408.7991,-122 271.2009,-122 271.2009,-86 408.7991,-86 408.7991,-122"/>
<text text-anchor="middle" x="340" y="-99.8" font-family="Times,serif" font-size="14.00" fill="#000000">UATDropdownMenu</text>
</g>
<!-- UATDropdownMenuModule -->
<g id="node2" class="node">
<title>UATDropdownMenuModule</title>
<polygon fill="#8dd3c7" stroke="#000000" points="338.3487,-187 335.3487,-191 314.3487,-191 311.3487,-187 157.6513,-187 157.6513,-151 338.3487,-151 338.3487,-187"/>
<text text-anchor="middle" x="248" y="-164.8" font-family="Times,serif" font-size="14.00" fill="#000000">UATDropdownMenuModule</text>
</g>
<!-- UATDropdownMenu&#45;&gt;UATDropdownMenuModule -->
<g id="edge1" class="edge">
<title>UATDropdownMenu&#45;&gt;UATDropdownMenuModule</title>
<path fill="none" stroke="#000000" d="M304.8875,-122.1061C304.8875,-122.1061 304.8875,-140.991 304.8875,-140.991"/>
<polygon fill="#000000" stroke="#000000" points="301.3875,-140.9909 304.8875,-150.991 308.3875,-140.991 301.3875,-140.9909"/>
</g>
<!-- UATDropdownMenu  -->
<g id="node4" class="node">
<title>UATDropdownMenu </title>
<polygon fill="#fb8072" stroke="#000000" points="318.2989,-252 177.7011,-252 177.7011,-216 318.2989,-216 318.2989,-252"/>
<text text-anchor="middle" x="248" y="-229.8" font-family="Times,serif" font-size="14.00" fill="#000000">UATDropdownMenu </text>
</g>
<!-- UATDropdownMenuModule&#45;&gt;UATDropdownMenu  -->
<g id="edge3" class="edge">
<title>UATDropdownMenuModule&#45;&gt;UATDropdownMenu </title>
<path fill="none" stroke="#000000" stroke-dasharray="5,2" d="M248,-187.1061C248,-187.1061 248,-205.991 248,-205.991"/>
<polygon fill="#000000" stroke="#000000" points="244.5001,-205.9909 248,-215.991 251.5001,-205.991 244.5001,-205.9909"/>
</g>
<!-- UATSlidingPanelModule -->
<g id="node3" class="node">
<title>UATSlidingPanelModule</title>
<polygon fill="#8dd3c7" stroke="#000000" points="246.8725,-122 243.8725,-126 222.8725,-126 219.8725,-122 87.1275,-122 87.1275,-86 246.8725,-86 246.8725,-122"/>
<text text-anchor="middle" x="167" y="-99.8" font-family="Times,serif" font-size="14.00" fill="#000000">UATSlidingPanelModule</text>
</g>
<!-- UATSlidingPanelModule&#45;&gt;UATDropdownMenuModule -->
<g id="edge2" class="edge">
<title>UATSlidingPanelModule&#45;&gt;UATDropdownMenuModule</title>
<path fill="none" stroke="#000000" d="M202.2559,-122.1061C202.2559,-122.1061 202.2559,-140.991 202.2559,-140.991"/>
<polygon fill="#000000" stroke="#000000" points="198.756,-140.9909 202.2559,-150.991 205.756,-140.991 198.756,-140.9909"/>
</g>
</g>
</svg>
