<?xml version="1.0" encoding="UTF-8" standalone="no"?>
<!DOCTYPE svg PUBLIC "-//W3C//DTD SVG 1.1//EN"
 "http://www.w3.org/Graphics/SVG/1.1/DTD/svg11.dtd">
<!-- Generated by graphviz version 2.40.1 (20161225.0304)
 -->
<!-- Title: dependencies Pages: 1 -->
<svg width="1558pt" height="284pt"
 viewBox="0.00 0.00 1558.00 284.00" xmlns="http://www.w3.org/2000/svg" xmlns:xlink="http://www.w3.org/1999/xlink">
<g id="graph0" class="graph" transform="scale(1 1) rotate(0) translate(4 280)">
<title>dependencies</title>
<polygon fill="#ffffff" stroke="transparent" points="-4,4 -4,-280 1554,-280 1554,4 -4,4"/>
<text text-anchor="start" x="754.0091" y="-42.4" font-family="sans-serif" font-weight="bold" font-size="14.00" fill="#000000">Legend</text>
<polygon fill="#ffffb3" stroke="transparent" points="541,-10 541,-30 561,-30 561,-10 541,-10"/>
<text text-anchor="start" x="564.629" y="-15.4" font-family="sans-serif" font-size="14.00" fill="#000000"> &#160;Declarations</text>
<polygon fill="#8dd3c7" stroke="transparent" points="654,-10 654,-30 674,-30 674,-10 654,-10"/>
<text text-anchor="start" x="677.7251" y="-15.4" font-family="sans-serif" font-size="14.00" fill="#000000"> &#160;Module</text>
<polygon fill="#80b1d3" stroke="transparent" points="740,-10 740,-30 760,-30 760,-10 740,-10"/>
<text text-anchor="start" x="763.7812" y="-15.4" font-family="sans-serif" font-size="14.00" fill="#000000"> &#160;Bootstrap</text>
<polygon fill="#fdb462" stroke="transparent" points="837,-10 837,-30 857,-30 857,-10 837,-10"/>
<text text-anchor="start" x="860.6732" y="-15.4" font-family="sans-serif" font-size="14.00" fill="#000000"> &#160;Providers</text>
<polygon fill="#fb8072" stroke="transparent" points="933,-10 933,-30 953,-30 953,-10 933,-10"/>
<text text-anchor="start" x="956.7258" y="-15.4" font-family="sans-serif" font-size="14.00" fill="#000000"> &#160;Exports</text>
<g id="clust1" class="cluster">
<title>cluster_UATModule</title>
<polygon fill="none" stroke="#000000" stroke-dasharray="1,5" points="8,-70 8,-268 1542,-268 1542,-70 8,-70"/>
</g>
<g id="clust3" class="cluster">
<title>cluster_UATModule_imports</title>
<polygon fill="none" stroke="#000000" points="34,-78 34,-130 1522,-130 1522,-78 34,-78"/>
</g>
<g id="clust4" class="cluster">
<title>cluster_UATModule_exports</title>
<polygon fill="none" stroke="#000000" points="16,-208 16,-260 1534,-260 1534,-208 16,-208"/>
</g>
<!-- UATSlidingPanelModule -->
<g id="node1" class="node">
<title>UATSlidingPanelModule</title>
<polygon fill="#8dd3c7" stroke="#000000" points="1513.8725,-122 1510.8725,-126 1489.8725,-126 1486.8725,-122 1354.1275,-122 1354.1275,-86 1513.8725,-86 1513.8725,-122"/>
<text text-anchor="middle" x="1434" y="-99.8" font-family="Times,serif" font-size="14.00" fill="#000000">UATSlidingPanelModule</text>
</g>
<!-- UATModule -->
<g id="node9" class="node">
<title>UATModule</title>
<polygon fill="#8dd3c7" stroke="#000000" points="714.3162,-187 711.3162,-191 690.3162,-191 687.3162,-187 625.6838,-187 625.6838,-151 714.3162,-151 714.3162,-187"/>
<text text-anchor="middle" x="670" y="-164.8" font-family="Times,serif" font-size="14.00" fill="#000000">UATModule</text>
</g>
<!-- UATSlidingPanelModule&#45;&gt;UATModule -->
<g id="edge1" class="edge">
<title>UATSlidingPanelModule&#45;&gt;UATModule</title>
<path fill="none" stroke="#000000" d="M1358.1888,-122.2222C1358.1888,-140.8285 1358.1888,-167 1358.1888,-167 1358.1888,-167 724.3596,-167 724.3596,-167"/>
<polygon fill="#000000" stroke="#000000" points="724.3597,-163.5001 714.3596,-167 724.3596,-170.5001 724.3597,-163.5001"/>
</g>
<!-- UATDropdownMenuModule -->
<g id="node2" class="node">
<title>UATDropdownMenuModule</title>
<polygon fill="#8dd3c7" stroke="#000000" points="1336.3487,-122 1333.3487,-126 1312.3487,-126 1309.3487,-122 1155.6513,-122 1155.6513,-86 1336.3487,-86 1336.3487,-122"/>
<text text-anchor="middle" x="1246" y="-99.8" font-family="Times,serif" font-size="14.00" fill="#000000">UATDropdownMenuModule</text>
</g>
<!-- UATDropdownMenuModule&#45;&gt;UATModule -->
<g id="edge2" class="edge">
<title>UATDropdownMenuModule&#45;&gt;UATModule</title>
<path fill="none" stroke="#000000" d="M1277.5581,-122.0225C1277.5581,-139.3734 1277.5581,-163 1277.5581,-163 1277.5581,-163 724.1835,-163 724.1835,-163"/>
<polygon fill="#000000" stroke="#000000" points="724.1835,-159.5001 714.1835,-163 724.1834,-166.5001 724.1835,-159.5001"/>
</g>
<!-- UATSlideoutMenuModule -->
<g id="node3" class="node">
<title>UATSlideoutMenuModule</title>
<polygon fill="#8dd3c7" stroke="#000000" points="1137.6442,-122 1134.6442,-126 1113.6442,-126 1110.6442,-122 970.3558,-122 970.3558,-86 1137.6442,-86 1137.6442,-122"/>
<text text-anchor="middle" x="1054" y="-99.8" font-family="Times,serif" font-size="14.00" fill="#000000">UATSlideoutMenuModule</text>
</g>
<!-- UATSlideoutMenuModule&#45;&gt;UATModule -->
<g id="edge3" class="edge">
<title>UATSlideoutMenuModule&#45;&gt;UATModule</title>
<path fill="none" stroke="#000000" d="M1082.024,-122.0091C1082.024,-138.0494 1082.024,-159 1082.024,-159 1082.024,-159 724.4853,-159 724.4853,-159"/>
<polygon fill="#000000" stroke="#000000" points="724.4853,-155.5001 714.4853,-159 724.4852,-162.5001 724.4853,-155.5001"/>
</g>
<!-- UATDropdownInputModule -->
<g id="node4" class="node">
<title>UATDropdownInputModule</title>
<polygon fill="#8dd3c7" stroke="#000000" points="951.7408,-122 948.7408,-126 927.7408,-126 924.7408,-122 774.2592,-122 774.2592,-86 951.7408,-86 951.7408,-122"/>
<text text-anchor="middle" x="863" y="-99.8" font-family="Times,serif" font-size="14.00" fill="#000000">UATDropdownInputModule</text>
</g>
<!-- UATDropdownInputModule&#45;&gt;UATModule -->
<g id="edge4" class="edge">
<title>UATDropdownInputModule&#45;&gt;UATModule</title>
<path fill="none" stroke="#000000" d="M833.3766,-122.1243C833.3766,-136.7832 833.3766,-155 833.3766,-155 833.3766,-155 724.2121,-155 724.2121,-155"/>
<polygon fill="#000000" stroke="#000000" points="724.2121,-151.5001 714.2121,-155 724.212,-158.5001 724.2121,-151.5001"/>
</g>
<!-- UATHamburgerMenuModule -->
<g id="node5" class="node">
<title>UATHamburgerMenuModule</title>
<polygon fill="#8dd3c7" stroke="#000000" points="756.2226,-122 753.2226,-126 732.2226,-126 729.2226,-122 571.7774,-122 571.7774,-86 756.2226,-86 756.2226,-122"/>
<text text-anchor="middle" x="664" y="-99.8" font-family="Times,serif" font-size="14.00" fill="#000000">UATHamburgerMenuModule</text>
</g>
<!-- UATHamburgerMenuModule&#45;&gt;UATModule -->
<g id="edge5" class="edge">
<title>UATHamburgerMenuModule&#45;&gt;UATModule</title>
<path fill="none" stroke="#000000" d="M670,-122.1061C670,-122.1061 670,-140.991 670,-140.991"/>
<polygon fill="#000000" stroke="#000000" points="666.5001,-140.9909 670,-150.991 673.5001,-140.991 666.5001,-140.9909"/>
</g>
<!-- UATCollapsingMenuModule -->
<g id="node6" class="node">
<title>UATCollapsingMenuModule</title>
<polygon fill="#8dd3c7" stroke="#000000" points="553.6428,-122 550.6428,-126 529.6428,-126 526.6428,-122 372.3572,-122 372.3572,-86 553.6428,-86 553.6428,-122"/>
<text text-anchor="middle" x="463" y="-99.8" font-family="Times,serif" font-size="14.00" fill="#000000">UATCollapsingMenuModule</text>
</g>
<!-- UATCollapsingMenuModule&#45;&gt;UATModule -->
<g id="edge6" class="edge">
<title>UATCollapsingMenuModule&#45;&gt;UATModule</title>
<path fill="none" stroke="#000000" d="M550.1962,-122.2396C550.1962,-137.5706 550.1962,-157 550.1962,-157 550.1962,-157 615.7299,-157 615.7299,-157"/>
<polygon fill="#000000" stroke="#000000" points="615.7299,-160.5001 625.7299,-157 615.7298,-153.5001 615.7299,-160.5001"/>
</g>
<!-- UATMultiSelectModule -->
<g id="node7" class="node">
<title>UATMultiSelectModule</title>
<polygon fill="#8dd3c7" stroke="#000000" points="353.64,-122 350.64,-126 329.64,-126 326.64,-122 200.36,-122 200.36,-86 353.64,-86 353.64,-122"/>
<text text-anchor="middle" x="277" y="-99.8" font-family="Times,serif" font-size="14.00" fill="#000000">UATMultiSelectModule</text>
</g>
<!-- UATMultiSelectModule&#45;&gt;UATModule -->
<g id="edge7" class="edge">
<title>UATMultiSelectModule&#45;&gt;UATModule</title>
<path fill="none" stroke="#000000" d="M348.6948,-122.0336C348.6948,-139.0597 348.6948,-162 348.6948,-162 348.6948,-162 615.6612,-162 615.6612,-162"/>
<polygon fill="#000000" stroke="#000000" points="615.6613,-165.5001 625.6612,-162 615.6612,-158.5001 615.6613,-165.5001"/>
</g>
<!-- UATCommonModule -->
<g id="node8" class="node">
<title>UATCommonModule</title>
<polygon fill="#8dd3c7" stroke="#000000" points="182.4341,-122 179.4341,-126 158.4341,-126 155.4341,-122 41.5659,-122 41.5659,-86 182.4341,-86 182.4341,-122"/>
<text text-anchor="middle" x="112" y="-99.8" font-family="Times,serif" font-size="14.00" fill="#000000">UATCommonModule</text>
</g>
<!-- UATCommonModule&#45;&gt;UATModule -->
<g id="edge8" class="edge">
<title>UATCommonModule&#45;&gt;UATModule</title>
<path fill="none" stroke="#000000" d="M175.0917,-122.2222C175.0917,-140.8285 175.0917,-167 175.0917,-167 175.0917,-167 615.6446,-167 615.6446,-167"/>
<polygon fill="#000000" stroke="#000000" points="615.6447,-170.5001 625.6446,-167 615.6446,-163.5001 615.6447,-170.5001"/>
</g>
<!-- UATSlidingPanelModule  -->
<g id="node10" class="node">
<title>UATSlidingPanelModule </title>
<polygon fill="#fb8072" stroke="#000000" points="1525.8728,-252 1362.1272,-252 1362.1272,-216 1525.8728,-216 1525.8728,-252"/>
<text text-anchor="middle" x="1444" y="-229.8" font-family="Times,serif" font-size="14.00" fill="#000000">UATSlidingPanelModule </text>
</g>
<!-- UATModule&#45;&gt;UATSlidingPanelModule  -->
<g id="edge9" class="edge">
<title>UATModule&#45;&gt;UATSlidingPanelModule </title>
<path fill="none" stroke="#000000" stroke-dasharray="5,2" d="M714.3368,-171C877.914,-171 1438.125,-171 1438.125,-171 1438.125,-171 1438.125,-205.7778 1438.125,-205.7778"/>
<polygon fill="#000000" stroke="#000000" points="1434.6251,-205.7778 1438.125,-215.7778 1441.6251,-205.7778 1434.6251,-205.7778"/>
</g>
<!-- UATDropdownMenuModule  -->
<g id="node11" class="node">
<title>UATDropdownMenuModule </title>
<polygon fill="#fb8072" stroke="#000000" points="1344.3489,-252 1159.6511,-252 1159.6511,-216 1344.3489,-216 1344.3489,-252"/>
<text text-anchor="middle" x="1252" y="-229.8" font-family="Times,serif" font-size="14.00" fill="#000000">UATDropdownMenuModule </text>
</g>
<!-- UATModule&#45;&gt;UATDropdownMenuModule  -->
<g id="edge10" class="edge">
<title>UATModule&#45;&gt;UATDropdownMenuModule </title>
<path fill="none" stroke="#000000" stroke-dasharray="5,2" d="M714.437,-175C845.0616,-175 1218.6919,-175 1218.6919,-175 1218.6919,-175 1218.6919,-205.9775 1218.6919,-205.9775"/>
<polygon fill="#000000" stroke="#000000" points="1215.192,-205.9774 1218.6919,-215.9775 1222.192,-205.9775 1215.192,-205.9774"/>
</g>
<!-- UATSlideoutMenuModule  -->
<g id="node12" class="node">
<title>UATSlideoutMenuModule </title>
<polygon fill="#fb8072" stroke="#000000" points="1141.6439,-252 970.3561,-252 970.3561,-216 1141.6439,-216 1141.6439,-252"/>
<text text-anchor="middle" x="1056" y="-229.8" font-family="Times,serif" font-size="14.00" fill="#000000">UATSlideoutMenuModule </text>
</g>
<!-- UATModule&#45;&gt;UATSlideoutMenuModule  -->
<g id="edge11" class="edge">
<title>UATModule&#45;&gt;UATSlideoutMenuModule </title>
<path fill="none" stroke="#000000" stroke-dasharray="5,2" d="M714.396,-179C809.8887,-179 1026.226,-179 1026.226,-179 1026.226,-179 1026.226,-205.9909 1026.226,-205.9909"/>
<polygon fill="#000000" stroke="#000000" points="1022.7261,-205.9909 1026.226,-215.9909 1029.7261,-205.991 1022.7261,-205.9909"/>
</g>
<!-- UATDropdownInputModule  -->
<g id="node13" class="node">
<title>UATDropdownInputModule </title>
<polygon fill="#fb8072" stroke="#000000" points="952.7408,-252 771.2592,-252 771.2592,-216 952.7408,-216 952.7408,-252"/>
<text text-anchor="middle" x="862" y="-229.8" font-family="Times,serif" font-size="14.00" fill="#000000">UATDropdownInputModule </text>
</g>
<!-- UATModule&#45;&gt;UATDropdownInputModule  -->
<g id="edge12" class="edge">
<title>UATModule&#45;&gt;UATDropdownInputModule </title>
<path fill="none" stroke="#000000" stroke-dasharray="5,2" d="M714.2494,-183C779.1731,-183 892.6234,-183 892.6234,-183 892.6234,-183 892.6234,-205.8757 892.6234,-205.8757"/>
<polygon fill="#000000" stroke="#000000" points="889.1235,-205.8757 892.6234,-215.8757 896.1235,-205.8757 889.1235,-205.8757"/>
</g>
<!-- UATHamburgerMenuModule  -->
<g id="node14" class="node">
<title>UATHamburgerMenuModule </title>
<polygon fill="#fb8072" stroke="#000000" points="753.2225,-252 564.7775,-252 564.7775,-216 753.2225,-216 753.2225,-252"/>
<text text-anchor="middle" x="659" y="-229.8" font-family="Times,serif" font-size="14.00" fill="#000000">UATHamburgerMenuModule </text>
</g>
<!-- UATModule&#45;&gt;UATHamburgerMenuModule  -->
<g id="edge13" class="edge">
<title>UATModule&#45;&gt;UATHamburgerMenuModule </title>
<path fill="none" stroke="#000000" stroke-dasharray="5,2" d="M670,-187.1061C670,-187.1061 670,-205.991 670,-205.991"/>
<polygon fill="#000000" stroke="#000000" points="666.5001,-205.9909 670,-215.991 673.5001,-205.991 666.5001,-205.9909"/>
</g>
<!-- UATCollapsingMenuModule  -->
<g id="node15" class="node">
<title>UATCollapsingMenuModule </title>
<polygon fill="#fb8072" stroke="#000000" points="546.6425,-252 361.3575,-252 361.3575,-216 546.6425,-216 546.6425,-252"/>
<text text-anchor="middle" x="454" y="-229.8" font-family="Times,serif" font-size="14.00" fill="#000000">UATCollapsingMenuModule </text>
</g>
<!-- UATModule&#45;&gt;UATCollapsingMenuModule  -->
<g id="edge14" class="edge">
<title>UATModule&#45;&gt;UATCollapsingMenuModule </title>
<path fill="none" stroke="#000000" stroke-dasharray="5,2" d="M625.5892,-182C563.7942,-182 459.375,-182 459.375,-182 459.375,-182 459.375,-205.8129 459.375,-205.8129"/>
<polygon fill="#000000" stroke="#000000" points="455.8751,-205.8129 459.375,-215.8129 462.8751,-205.813 455.8751,-205.8129"/>
</g>
<!-- UATMultiSelectModule  -->
<g id="node16" class="node">
<title>UATMultiSelectModule </title>
<polygon fill="#fb8072" stroke="#000000" points="343.6397,-252 186.3603,-252 186.3603,-216 343.6397,-216 343.6397,-252"/>
<text text-anchor="middle" x="265" y="-229.8" font-family="Times,serif" font-size="14.00" fill="#000000">UATMultiSelectModule </text>
</g>
<!-- UATModule&#45;&gt;UATMultiSelectModule  -->
<g id="edge15" class="edge">
<title>UATModule&#45;&gt;UATMultiSelectModule </title>
<path fill="none" stroke="#000000" stroke-dasharray="5,2" d="M625.4889,-177C521.5996,-177 271.875,-177 271.875,-177 271.875,-177 271.875,-205.9648 271.875,-205.9648"/>
<polygon fill="#000000" stroke="#000000" points="268.3751,-205.9648 271.875,-215.9648 275.3751,-205.9649 268.3751,-205.9648"/>
</g>
<!-- UATCommonModule  -->
<g id="node17" class="node">
<title>UATCommonModule </title>
<polygon fill="#fb8072" stroke="#000000" points="167.9334,-252 24.0666,-252 24.0666,-216 167.9334,-216 167.9334,-252"/>
<text text-anchor="middle" x="96" y="-229.8" font-family="Times,serif" font-size="14.00" fill="#000000">UATCommonModule </text>
</g>
<!-- UATModule&#45;&gt;UATCommonModule  -->
<g id="edge16" class="edge">
<title>UATModule&#45;&gt;UATCommonModule </title>
<path fill="none" stroke="#000000" stroke-dasharray="5,2" d="M625.6556,-172C492.4326,-172 104.875,-172 104.875,-172 104.875,-172 104.875,-205.7333 104.875,-205.7333"/>
<polygon fill="#000000" stroke="#000000" points="101.3751,-205.7333 104.875,-215.7333 108.3751,-205.7333 101.3751,-205.7333"/>
</g>
</g>
</svg>
